/* XPM */
static char * coin_xpm[] = {
"42 42 747 2",
"  	c #CEBC8D",
". 	c #CDBC8E",
"+ 	c #CDBD8F",
"@ 	c #CEBF95",
"# 	c #CDBC8D",
"$ 	c #CEBC8E",
"% 	c #CDBD90",
"& 	c #CBB988",
"* 	c #CEBD8F",
"= 	c #CFBF91",
"- 	c #CBB786",
"; 	c #CFBD8B",
"> 	c #D2BC8C",
", 	c #D4BE8C",
"' 	c #D2BD90",
") 	c #CDB98B",
"! 	c #CCB888",
"~ 	c #CDB687",
"{ 	c #CEBC8B",
"] 	c #D0BE91",
"^ 	c #CBBA8B",
"/ 	c #CBB888",
"( 	c #CEBB89",
"_ 	c #C7B17E",
": 	c #C4AE78",
"< 	c #C2AB76",
"[ 	c #C2AC78",
"} 	c #C5B282",
"| 	c #C8B585",
"1 	c #CFB787",
"2 	c #D0BB88",
"3 	c #D0BA8A",
"4 	c #D3BD8F",
"5 	c #D4BF92",
"6 	c #D5C193",
"7 	c #D0BC8D",
"8 	c #CDB887",
"9 	c #CFBC8D",
"0 	c #CDBB8C",
"a 	c #D0C093",
"b 	c #B9AF8A",
"c 	c #CFBE8F",
"d 	c #CDBB8B",
"e 	c #CEBA88",
"f 	c #C8B682",
"g 	c #C7B37F",
"h 	c #BFA873",
"i 	c #C2AD79",
"j 	c #CAB787",
"k 	c #C2AE7C",
"l 	c #C6B17E",
"m 	c #CDB686",
"n 	c #CAB481",
"o 	c #C9B482",
"p 	c #CFBD6C",
"q 	c #D7C56C",
"r 	c #D5C44F",
"s 	c #D4C341",
"t 	c #EFE54C",
"u 	c #F8F050",
"v 	c #E8D641",
"w 	c #E2D04F",
"x 	c #D5C671",
"y 	c #C6AD63",
"z 	c #C1AC75",
"A 	c #BFA976",
"B 	c #CAB382",
"C 	c #C5AF7B",
"D 	c #BEA874",
"E 	c #C1AC78",
"F 	c #C5B281",
"G 	c #C8B686",
"H 	c #CCB684",
"I 	c #CFB986",
"J 	c #CDB889",
"K 	c #CEBE90",
"L 	c #CFBE90",
"M 	c #B8AF88",
"N 	c #CEBD90",
"O 	c #C8B37E",
"P 	c #C4AC76",
"Q 	c #C4A76B",
"R 	c #C6A76A",
"S 	c #C5A66B",
"T 	c #CAAE74",
"U 	c #AF9661",
"V 	c #C7AF74",
"W 	c #BBA86D",
"X 	c #C2AB6F",
"Y 	c #C7A664",
"Z 	c #DFCF4E",
"` 	c #EFE554",
" .	c #F5EC4F",
"..	c #F8F361",
"+.	c #F8F87F",
"@.	c #F2EF79",
"#.	c #EFEA7A",
"$.	c #D2B858",
"%.	c #BFA469",
"&.	c #B09761",
"*.	c #C4AE73",
"=.	c #BFA96F",
"-.	c #C8A76B",
";.	c #CAA468",
">.	c #C7A366",
",.	c #C8A66A",
"'.	c #C7AE75",
").	c #C6AE7C",
"!.	c #D1BA86",
"~.	c #D1BA88",
"{.	c #B8AE88",
"].	c #CFBF94",
"^.	c #CFBF90",
"/.	c #C1AB76",
"(.	c #BBA36B",
"_.	c #C7AB6E",
":.	c #C8A96C",
"<.	c #C6A86D",
"[.	c #C7AD72",
"}.	c #A48C59",
"|.	c #B59D67",
"1.	c #BFA459",
"2.	c #DACA58",
"3.	c #F7EE4F",
"4.	c #F8F881",
"5.	c #F8F880",
"6.	c #F8F981",
"7.	c #EADD60",
"8.	c #C2B15E",
"9.	c #B39761",
"0.	c #BC9E65",
"a.	c #CBA86A",
"b.	c #C9A265",
"c.	c #CBA569",
"d.	c #C9A367",
"e.	c #C9A368",
"f.	c #C6A469",
"g.	c #D0B884",
"h.	c #B8AB83",
"i.	c #CEBB8A",
"j.	c #C7B27F",
"k.	c #BFA56C",
"l.	c #CDB374",
"m.	c #A68E5A",
"n.	c #BD9E65",
"o.	c #B89D64",
"p.	c #B89D65",
"q.	c #C7A367",
"r.	c #C4A656",
"s.	c #F8EF50",
"t.	c #F7EF4F",
"u.	c #F7F472",
"v.	c #F7F57D",
"w.	c #DDC74F",
"x.	c #CBAD70",
"y.	c #C7B174",
"z.	c #D4BD7A",
"A.	c #CCA467",
"B.	c #CCA266",
"C.	c #CDA86B",
"D.	c #C6A769",
"E.	c #BDA068",
"F.	c #CCB481",
"G.	c #B6AA82",
"H.	c #CDBA86",
"I.	c #C7AF79",
"J.	c #C8AB6E",
"K.	c #C6A669",
"L.	c #A18E5B",
"M.	c #AF975F",
"N.	c #B59B62",
"O.	c #C19E5D",
"P.	c #CEB53B",
"Q.	c #E9D641",
"R.	c #F8F150",
"S.	c #F2E64B",
"T.	c #EFE147",
"U.	c #E4CF3C",
"V.	c #E9D842",
"W.	c #E1CA38",
"X.	c #EFE66A",
"Y.	c #EFE76B",
"Z.	c #F9F981",
"`.	c #F1EA6F",
" +	c #C6AE57",
".+	c #D0B877",
"++	c #C9A86A",
"@+	c #CAA367",
"#+	c #CFAA6A",
"$+	c #CCAF73",
"%+	c #CEB778",
"&+	c #CBB67F",
"*+	c #B8AB84",
"=+	c #CCB784",
"-+	c #C5AC77",
";+	c #B39C65",
">+	c #CFB374",
",+	c #C7A468",
"'+	c #C6B074",
")+	c #BC9D60",
"!+	c #CFB73C",
"~+	c #E0C838",
"{+	c #E6D23E",
"]+	c #EBDC44",
"^+	c #E5D03D",
"/+	c #EFE248",
"(+	c #F5EB4D",
"_+	c #F8F260",
":+	c #F5F37A",
"<+	c #F5F279",
"[+	c #F4F178",
"}+	c #E4D14B",
"|+	c #E5D24C",
"1+	c #F3EE75",
"2+	c #CCB45D",
"3+	c #CEB77A",
"4+	c #C4A469",
"5+	c #D1BB7E",
"6+	c #C1AC79",
"7+	c #CBA869",
"8+	c #C8A86D",
"9+	c #B8AD84",
"0+	c #BFA870",
"a+	c #D1B474",
"b+	c #CEAD6E",
"c+	c #C49F65",
"d+	c #C3A364",
"e+	c #CEB63B",
"f+	c #E1C938",
"g+	c #E3CD3B",
"h+	c #F3E84B",
"i+	c #EDDF46",
"j+	c #EAD943",
"k+	c #F8F04F",
"l+	c #F8F570",
"m+	c #ECE264",
"n+	c #ECE062",
"o+	c #EEE66A",
"p+	c #D0B862",
"q+	c #CCA96D",
"r+	c #C5B079",
"s+	c #C7B47D",
"t+	c #C2AB75",
"u+	c #CCA568",
"v+	c #B7AA82",
"w+	c #C5AD79",
"x+	c #C1A46C",
"y+	c #C7A569",
"z+	c #C3A065",
"A+	c #C19F65",
"B+	c #E0C939",
"C+	c #EEE047",
"D+	c #F6EC4E",
"E+	c #F5F479",
"F+	c #F5F379",
"G+	c #F5F47D",
"H+	c #F4F47D",
"I+	c #F7F67E",
"J+	c #EDE366",
"K+	c #D8BB65",
"L+	c #AC8F5A",
"M+	c #C49D60",
"N+	c #C8B179",
"O+	c #CEB579",
"P+	c #B7AA81",
"Q+	c #C6AF7B",
"R+	c #BEA26B",
"S+	c #C7AC72",
"T+	c #C6A266",
"U+	c #C6A859",
"V+	c #ECDD45",
"W+	c #F8F674",
"X+	c #C6B039",
"Y+	c #DBCC42",
"Z+	c #DBCB42",
"`+	c #DBD161",
" @	c #AE9F38",
".@	c #F2ED73",
"+@	c #EEE468",
"@@	c #E9DF6D",
"#@	c #AC9666",
"$@	c #B09760",
"%@	c #B0935E",
"&@	c #BEA066",
"*@	c #B8AA81",
"=@	c #C9B481",
"-@	c #C3A973",
";@	c #BAA067",
">@	c #BDA057",
",@	c #DAC239",
"'@	c #E1CB3A",
")@	c #DFC737",
"!@	c #CFBD3F",
"~@	c #F9F150",
"{@	c #F9F97F",
"]@	c #B8AD47",
"^@	c #F5F278",
"/@	c #EEE467",
"(@	c #F8F87E",
"_@	c #DCC550",
":@	c #BFA268",
"<@	c #CBAF70",
"[@	c #BD9F65",
"}@	c #B7AB84",
"|@	c #BDA46E",
"1@	c #CAAF73",
"2@	c #D0B851",
"3@	c #E6D33F",
"4@	c #F9F463",
"5@	c #B8AE48",
"6@	c #F2EC72",
"7@	c #EEE568",
"8@	c #F3F07B",
"9@	c #CBB16B",
"0@	c #C6A365",
"a@	c #CBB274",
"b@	c #BAAB84",
"c@	c #C2AA77",
"d@	c #BFA26C",
"e@	c #BEA364",
"f@	c #DFC738",
"g@	c #E2CC3B",
"h@	c #E4CF3D",
"i@	c #F9F152",
"j@	c #B8AB37",
"k@	c #E6D450",
"l@	c #F8F77F",
"m@	c #F8F677",
"n@	c #DBC864",
"o@	c #CDB274",
"p@	c #CAB174",
"q@	c #B8AA83",
"r@	c #C5AD7A",
"s@	c #BDA46C",
"t@	c #CFB742",
"u@	c #ECDC44",
"v@	c #E7D33F",
"w@	c #B8AB35",
"x@	c #F6F47B",
"y@	c #E6D44F",
"z@	c #F7F780",
"A@	c #E8DC49",
"B@	c #CBB073",
"C@	c #BAA168",
"D@	c #B6A981",
"E@	c #C2A977",
"F@	c #DCC444",
"G@	c #E0C737",
"H@	c #F2E74B",
"I@	c #E4D03D",
"J@	c #EADC5B",
"K@	c #F7EF53",
"L@	c #F8F052",
"M@	c #C0A848",
"N@	c #C6AF74",
"O@	c #B6A97F",
"P@	c #CEB989",
"Q@	c #CBB269",
"R@	c #DEC638",
"S@	c #E1CA39",
"T@	c #F8F468",
"U@	c #F2E74A",
"V@	c #EDDE46",
"W@	c #DDCE51",
"X@	c #C6A76C",
"Y@	c #CEBA8A",
"Z@	c #CFB965",
"`@	c #F8F679",
" #	c #EFE455",
".#	c #C3A469",
"+#	c #CFBB8A",
"@#	c #CCB438",
"##	c #E1C939",
"$#	c #B8AB34",
"%#	c #F9F468",
"&#	c #F8F367",
"*#	c #F8F25C",
"=#	c #E2CC3A",
"-#	c #EEE44C",
";#	c #C3A55D",
">#	c #B8AC85",
",#	c #D0BE8D",
"'#	c #EEE147",
")#	c #E5D13D",
"!#	c #F8F46F",
"~#	c #F4EA4D",
"{#	c #BCA55F",
"]#	c #BDB38F",
"^#	c #D1BE8D",
"/#	c #F1E549",
"(#	c #BDA35D",
"_#	c #BDB28E",
":#	c #CFBA88",
"<#	c #F1E54A",
"[#	c #CAB36C",
"}#	c #BCAF88",
"|#	c #CCB881",
"1#	c #F9F151",
"2#	c #C3A962",
"3#	c #B9AE89",
"4#	c #C9B580",
"5#	c #B7AA33",
"6#	c #E8D540",
"7#	c #F4E94C",
"8#	c #F0E449",
"9#	c #C4A55C",
"0#	c #BAAF89",
"a#	c #C4AD78",
"b#	c #C3AC38",
"c#	c #DDC538",
"d#	c #E1C838",
"e#	c #EBDB44",
"f#	c #E1CE3F",
"g#	c #C7A45B",
"h#	c #C0B390",
"i#	c #C7B27C",
"j#	c #C2AA45",
"k#	c #C1A938",
"l#	c #C7B23B",
"m#	c #CDB538",
"n#	c #D3BF3D",
"o#	c #F3E84C",
"p#	c #EADA43",
"q#	c #E9D741",
"r#	c #E7D440",
"s#	c #DAC23B",
"t#	c #CCAC66",
"u#	c #B6AB85",
"v#	c #C5AF79",
"w#	c #C3AC65",
"x#	c #C0A838",
"y#	c #CAB238",
"z#	c #C7B13B",
"A#	c #CBB338",
"B#	c #E0C738",
"C#	c #D5BE41",
"D#	c #B09B64",
"E#	c #B5A983",
"F#	c #C6AF78",
"G#	c #C1A762",
"H#	c #C1A83B",
"I#	c #D8C037",
"J#	c #F2E84C",
"K#	c #BEA637",
"L#	c #D9C138",
"M#	c #B6A732",
"N#	c #E3CE3C",
"O#	c #C7B059",
"P#	c #CAB67B",
"Q#	c #B9AB86",
"R#	c #BFA76E",
"S#	c #C1A843",
"T#	c #F2E94E",
"U#	c #D8C842",
"V#	c #C5AD38",
"W#	c #B09E2C",
"X#	c #C6A76D",
"Y#	c #BAAB87",
"Z#	c #CFB886",
"`#	c #C6AC55",
" $	c #C3AC39",
".$	c #E0D246",
"+$	c #C2AA39",
"@$	c #C3AB38",
"#$	c #D8C038",
"$$	c #E2CB3A",
"%$	c #CDB549",
"&$	c #C3AB74",
"*$	c #CAA568",
"=$	c #BEAE89",
"-$	c #D1BB8B",
";$	c #C7A869",
">$	c #DED045",
",$	c #C6B03B",
"'$	c #BFA738",
")$	c #F0E248",
"!$	c #DCC438",
"~$	c #C5AC64",
"{$	c #C1B07B",
"]$	c #C8A56A",
"^$	c #BEB089",
"/$	c #D0BB8B",
"($	c #C4AC7B",
"_$	c #BFA86E",
":$	c #C4A558",
"<$	c #BFA637",
"[$	c #E4D848",
"}$	c #C9B43C",
"|$	c #E9DD4A",
"1$	c #EAD842",
"2$	c #D1BA42",
"3$	c #B0945E",
"4$	c #BDA168",
"5$	c #BEB38E",
"6$	c #CFBA8B",
"7$	c #C8B37F",
"8$	c #CFB472",
"9$	c #C1A942",
"0$	c #C4AE3A",
"a$	c #C0A738",
"b$	c #E0C938",
"c$	c #F0E349",
"d$	c #D1B938",
"e$	c #D1B46C",
"f$	c #CCAA6B",
"g$	c #AC945F",
"h$	c #B09563",
"i$	c #BEB08B",
"j$	c #C6B280",
"k$	c #C1A872",
"l$	c #C8B174",
"m$	c #C29E61",
"n$	c #E4D747",
"o$	c #DCCD44",
"p$	c #E7DC49",
"q$	c #C4B335",
"r$	c #D3B55D",
"s$	c #C8A86E",
"t$	c #C8AF74",
"u$	c #C6A264",
"v$	c #BDAD86",
"w$	c #CCB685",
"x$	c #B99D67",
"y$	c #C2AB70",
"z$	c #D3B574",
"A$	c #C4A855",
"B$	c #CFB838",
"C$	c #F1E449",
"D$	c #C9B043",
"E$	c #CDAA69",
"F$	c #C8AC71",
"G$	c #CAA96B",
"H$	c #C6A265",
"I$	c #BBAB83",
"J$	c #CAB788",
"K$	c #C4AC75",
"L$	c #BCA369",
"M$	c #BB9E65",
"N$	c #C4A56E",
"O$	c #D1A96A",
"P$	c #C6AD59",
"Q$	c #C5AF3A",
"R$	c #F3EA4E",
"S$	c #D9C943",
"T$	c #C8B33C",
"U$	c #C5AE41",
"V$	c #D3B271",
"W$	c #D0B274",
"X$	c #CDAC6F",
"Y$	c #C8AB6F",
"Z$	c #CAB073",
"`$	c #B5A26A",
" %	c #B7AB81",
".%	c #AC935E",
"+%	c #BA9C64",
"@%	c #D2A767",
"#%	c #D5A868",
"$%	c #D6A867",
"%%	c #B99E4C",
"&%	c #CEBA3C",
"*%	c #EBDD47",
"=%	c #E2D040",
"-%	c #C3AB39",
";%	c #C2AB39",
">%	c #D8C139",
",%	c #F0E64C",
"'%	c #C8AF41",
")%	c #D6C07C",
"!%	c #D3B777",
"~%	c #D4BA79",
"{%	c #C9AF74",
"]%	c #C8AB70",
"^%	c #BBA56F",
"/%	c #D3C397",
"(%	c #CCB886",
"_%	c #CEB97C",
":%	c #B8965F",
"<%	c #C8A569",
"[%	c #C7A64E",
"}%	c #C2A742",
"|%	c #D9CA43",
"1%	c #E5D848",
"2%	c #E4D748",
"3%	c #D3BB37",
"4%	c #D4BC38",
"5%	c #D5BD39",
"6%	c #C8AF51",
"7%	c #C7A96C",
"8%	c #CEB174",
"9%	c #A7915C",
"0%	c #BA9960",
"a%	c #D3BC7B",
"b%	c #D5BE7C",
"c%	c #C4AA70",
"d%	c #C9B27E",
"e%	c #B9AC83",
"f%	c #D2C395",
"g%	c #D0BF90",
"h%	c #C5A971",
"i%	c #C5A76D",
"j%	c #D3BD7F",
"k%	c #AB915C",
"l%	c #AA8F5C",
"m%	c #D3AB6B",
"n%	c #C9A365",
"o%	c #C0A73E",
"p%	c #C0A839",
"q%	c #D3BB3A",
"r%	c #C5A05C",
"s%	c #C19D64",
"t%	c #C0A36A",
"u%	c #C2AB72",
"v%	c #BBA570",
"w%	c #BB9D67",
"x%	c #C8B076",
"y%	c #C4AA6F",
"z%	c #C7AB71",
"A%	c #CBB581",
"B%	c #B8AD86",
"C%	c #D0C092",
"D%	c #D3C396",
"E%	c #D0BA88",
"F%	c #CCB17C",
"G%	c #C7AB6F",
"H%	c #C8AC70",
"I%	c #C4AF75",
"J%	c #B59760",
"K%	c #AC8F5B",
"L%	c #B19661",
"M%	c #CDB577",
"N%	c #C9AE67",
"O%	c #BEA74F",
"P%	c #B99D4B",
"Q%	c #AD8F5C",
"R%	c #C4AB73",
"S%	c #CCB577",
"T%	c #BEA66D",
"U%	c #BBA46A",
"V%	c #C1A56D",
"W%	c #C69F67",
"X%	c #C5AF73",
"Y%	c #BEA86E",
"Z%	c #C7B17C",
"`%	c #B6AB84",
" &	c #CFBD90",
".&	c #D1C193",
"+&	c #CEB988",
"@&	c #CEB786",
"#&	c #C7AA6F",
"$&	c #BA9B62",
"%&	c #CDB87A",
"&&	c #B59862",
"*&	c #C7AE74",
"=&	c #CDB677",
"-&	c #C1A365",
";&	c #C5AB65",
">&	c #C0A83C",
",&	c #C0A83D",
"'&	c #C0A83A",
")&	c #CAAD68",
"!&	c #BA9C60",
"~&	c #A58F5D",
"{&	c #CCB77A",
"]&	c #D1BA79",
"^&	c #B69963",
"/&	c #B49862",
"(&	c #C2A469",
"_&	c #C5AA6F",
":&	c #C5AC74",
"<&	c #CAB27E",
"[&	c #CBB684",
"}&	c #B7AE87",
"|&	c #CDBA89",
"1&	c #CCB380",
"2&	c #CAB17C",
"3&	c #C7AA70",
"4&	c #C1A56E",
"5&	c #C4A86B",
"6&	c #C1A369",
"7&	c #B69C65",
"8&	c #B69C66",
"9&	c #C4AB74",
"0&	c #CAB685",
"a&	c #C2AD6C",
"b&	c #BFA859",
"c&	c #BFA758",
"d&	c #BFA754",
"e&	c #C1A856",
"f&	c #C1A858",
"g&	c #C0A85A",
"h&	c #C3A964",
"i&	c #C4A96D",
"j&	c #C4A96E",
"k&	c #BEA76F",
"l&	c #BAA66E",
"m&	c #C6AC71",
"n&	c #C4A86E",
"o&	c #C5A96D",
"p&	c #C1A76F",
"q&	c #C4AE7B",
"r&	c #C9B380",
"s&	c #C6B37E",
"t&	c #CAB37D",
"u&	c #CDB786",
"v&	c #D2BD8F",
"w&	c #CEBB8C",
"x&	c #BAB28E",
"y&	c #C5B384",
"z&	c #C6B587",
"A&	c #C6B386",
"B&	c #C6B282",
"C&	c #C5AE7D",
"D&	c #BAA36E",
"E&	c #BAA673",
"F&	c #C3AD78",
"G&	c #C4AB78",
"H&	c #BFA874",
"I&	c #B7A06C",
"J&	c #B2A06F",
"K&	c #B5A576",
"L&	c #C2B183",
"M&	c #C6B588",
"N&	c #C7B68A",
"O&	c #C4B387",
"P&	c #C2B182",
"Q&	c #C2AF80",
"R&	c #C4B484",
"S&	c #C7B485",
"T&	c #C0AD7C",
"U&	c #BAAC7B",
"V&	c #BAAC79",
"W&	c #BEA873",
"X&	c #BEA771",
"Y&	c #BAAA74",
"Z&	c #BBAB76",
"`&	c #C3AE7B",
" *	c #BFAA76",
".*	c #BBAC7A",
"+*	c #C5B182",
"@*	c #C8B789",
"#*	c #C9B78C",
"$*	c #CCBA8E",
"%*	c #CAB98C",
"&*	c #C8B88E",
"**	c #C6B688",
"=*	c #C7B789",
"-*	c #B3AC89",
"  . + @ # $ % & * = - ; > , ' ) ! ~ { ] ^ / ( _ : < [ } | 1 2 3 4 5 6 7 8 9 0 a = b ",
"0 c d e f g h i / j k l m n o p q r s t u u v v w x y z A B C D E F G H I 3 J K L M ",
"N . O P Q R S T U V W X Y Z `  .u u u u u u u u ..+.@.#.$.%.&.*.=.-.;.>.,.'.).!.~.{.",
"].^./.(._.:.<.[.}.|.1.2.3.u u u u u u u u u u u 4.5.5.5.6.7.8.9.0.a.b.c.d.e.f.g.~.h.",
"i.j.k.l.m.n.o.p.q.r.t u u u u u u s.t.t.t.t.t.u.5.5.5.5.5.5.v.w.x.y.z.A.B.C.D.E.F.G.",
"H.I.J.K.L.M.N.O.P.Q.u u u u R.S.T.U.V.V.V.V.V.W.X.Y.Z.6.5.5.5.6.`. +.+++@+#+$+%+&+*+",
"=+-+;+>+,+'+)+!+~+~+{+R.u ]+^+/+(+(+u u u u _+:+<+[+}+|+5.5.5.5.5.1+2+3+4+5+6+7+8+9+",
"n 0+a+b+c+d+e+f+~+~+g+h+i+j+u u u k+k+k+k+k+l+5.5.5.Z.m+n+o+6.5.5.5.`.p+q+r+s+t+u+v+",
"w+x+y+z+A+e+~+~+~+~+B+C+D+u u u u l+E+F+F+F+G+H+5.5.5.5.I+[+J+5.5.5.5.1+K+L+M+N+O+P+",
"Q+R+S+T+U+f+~+~+~+~+V+R.u u u u u W+X+Y+Z+Z+`+ @Z.5.5.5.5.5..@+@6.5.5.5.@@#@$@%@&@*@",
"=@-@;@>@,@~+~+~+'@)@3.u u u u u u W+!@~@u u {@]@Z.5.5.5.5.5.5.^@/@5.5.5.(@_@:@<@[@}@",
"Q+|@1@2@~+~+~+3@V+)@3.u u u u u u W+!@~@u u 4@5@Z.5.5.5.5.5.5.5.6@7@5.5.5.8@9@0@a@b@",
"c@d@e@f@~+~+~+g@~+~+h@s.u u u u u W+!@~@u u i@j@Z.5.5.5.5.5.5.5.6.k@l@5.5.m@n@o@p@q@",
"r@s@t@~+~+~+u@v@~+~+~+3@u u u u u W+!@~@u u ~@w@Z.5.5.5.5.5.5.5.5.x@y@z@W+u A@B@C@D@",
"/ E@F@~+~+G@H@G@~+~+~+~+I@t.u u u W+!@~@u u ~@w@Z.5.5.5.5.5.5.5.5.+.J@K@L@u ~@M@N@O@",
"P@Q@R@~+~+3@S@~+~+~+~+~+~+3@u u u W+!@~@u u ~@w@Z.5.5.5.5.5.5.5.4.T@U@V@u u u W@X@P+",
"Y@Z@~+~+~+j+g@~+~+~+~+~+~+~+^+t.u W+!@~@u u ~@w@Z.5.5.5.5.5.(@`@L@u R.^+R.u u  #.#}@",
"+#@#~+~+##v ~+~+~+~+~+~+~+~+~+3@u W+!@~@u u ~@$#%#&#&#&#&#&#*#k+u u R.=#h+u u -#;#>#",
",#@#~+~+S@'#~+~+~+~+~+~+~+~+~+~+)#!#!@~@u u ~@$#~@u u u u u u u u u u ~#T.u u -#{#]#",
"^#@#~+~+S@'#~+~+~+~+~+~+~+~+~+~+~+/#!@~@u u ~@$#~@u u u u u u u u u u (+T.u u -#(#_#",
":#@#~+~+S@'#~+~+~+~+~+~+~+~+~+~+~+<#!@~@u u ~@$#~@u u u u u u u u u u (+T.u u -#[#}#",
"|#@#~+~+S@'#~+~+~+~+~+~+~+~+~+~+~+<#!@~@u u ~@$#1#u u u u u u u u u u (+T.u u -#2#3#",
"4#@#~+~+S@'#~+~+~+~+~+~+~+~+~+~+~+<#!@~@u u ~@5#6#7#u u u u u u u u u D+8#u u -#9#0#",
"a#b#c#~+S@'#~+~+~+~+~+~+~+~+~+~+~+<#!@~@u u ~@5#d#~+v v v V.~@u u u R.e#R.u R.f#g#h#",
"i#j#k#f+~+u@l#m#~+~+~+~+~+~+~+~+~+<#n#o#u u ~@5#f+~+~+~+~+~+~+~+p#h+q#r#o#o#r#s#t#u#",
"v#w#x#y#c#u@z#x#A#d#~+~+~+~+~+~+~+<#~+B#r#~#~@5#f+~+~+~+~+~+~+~+~+B#)@~#)@B#~+C#D#E#",
"F#G#H#x#k#I#J#K#x#m#L#c#~+~+~+~+~+<#~+~+~+~+v@M#f+~+~+~+~+~+~+~+~+~+N#/+B#~+~+O#P#Q#",
"r+R#S#x#x#K#T#U#x#x#x#V#@#~+~+~+~+<#~+~+~+~+d#W#f+~+~+~+~+~+~+~+~+~+T.S@~+~+~+t+X#Y#",
"Z#a#`#x#x#x# $.$+$x#x#x#@$#$#$#$~+<#~+~+~+~+f+W#f+~+~+~+~+~+~+~+~+$$v ~+~+~+%$&$*$=$",
"-$< ;$x#x#x#x#>$,$x#x#x#x#x#x#'$f@<#~+~+~+~+f+W#f+~+~+~+~+~+~+~+B#)$G@~+~+!$~${$]$^$",
"/$($_$:$x#x#x#<$[$}$x#x#x#x#x#x#'$|$~+~+~+~+f+W#f+~+~+~+~+~+~+B#1$S@~+~+~+2$&.3$4$5$",
"6$7$%.8$9$x#x#x#k#.$0$x#x#x#x#x#a$|$##b$b$b$##W#f+~+~+~+~+~+~+c$)@~+~+~+d$e$f$g$h$i$",
"j$k$1@l$m$x#x#x#x#<$n$}$'$x#x#x#x#o$p$p$p$p$A@q$f+~+~+~+~+~+V@S@~+~+~+f@r$s$t$u$l$v$",
"w$&$x$y$z$A$x#x#x#x#k#.$|$k#x#x#x#x#x#x#x#x#a$V#B$f@~+~+~+C$=#~+~+~+~+D$E$F$G$H$y$I$",
"J$K$L$M$N$O$P$x#x#x#x#'$Q$R$S$T$<$'$x#x#x#x#x#'$<$x#j+j+V.B#~+~+~+f@U$V$W$X$Y$Z$`$ %",
"  -+.%+%@%#%$%%%x#x#x#x#x#,$&%*%t =%-%;%;%;%;%>%,%t U.U.~+~+~+~+~+'%)%!%~%{%]%Z$^%*@",
"/%(%F$F$_%.%:%<%[%}%x#x#x#x#x#'$<$|%1%1%1%1%1%2%3%3%4%f@~+~+f+5%6%7%8%9%0%a%b%c%d%e%",
"f%g%h%i%F$j%k%l%m%n%o%p%x#x#x#x#x#x#x#x#x#x#x#x#x#x#x#V#f@f@q%r%s%t%u%v%w%x%y%z%A%B%",
"C%D%E%F%G%H%I%J%K%L%M%N%O%x#x#x#x#x#x#x#x#x#x#x#x#x#x#x#M@P%Q%R%S%T%U%V%W%X%Y%Z%6$`%",
" &.&+&@&F$#&$&&.%&S%&&*&=&-&;&>&,&'&x#x#x#x#x#x#p%>&>&)&!&~&{&]&^&/&l$(&_&:&<&[&4 }&",
"|&0 { E%1&2&3&T 4&V%5&6&7&8&9&($0&a&b&c&d&e&f&g&h&i&j&k&l&m&n&o&p&q&r&s&t&u&v&w&  x&",
"y&z&y&A&B&C&D&E&F&G&H&I&J&K&L&M&N&O&P&Q&R&S&T&U&V&W&X&Y&Z&`& *.*+*@*#*$*%*M&&***=*-*"};
