/* XPM */
static char * exit_xpm[] = {
"42 63 491 2",
"  	c #784808",
". 	c #794908",
"+ 	c #6A3F06",
"@ 	c #301A01",
"# 	c #000000",
"$ 	c #6A4901",
"% 	c #CD9106",
"& 	c #E4A21C",
"* 	c #E1A122",
"= 	c #E09F11",
"- 	c #DF9C00",
"; 	c #E0AE6B",
"> 	c #DDD3C9",
", 	c #A1A4A7",
"' 	c #705120",
") 	c #CB8F00",
"! 	c #AA7803",
"~ 	c #2F1E00",
"{ 	c #704F0D",
"] 	c #CC9222",
"^ 	c #A5761A",
"/ 	c #6F4C00",
"( 	c #CD9322",
"_ 	c #E6C8A9",
": 	c #CDCCCB",
"< 	c #6F6D6C",
"[ 	c #A16E00",
"} 	c #DD9D06",
"| 	c #E09F06",
"1 	c #E19F05",
"2 	c #E2A011",
"3 	c #E2A122",
"4 	c #E19E00",
"5 	c #A4A5A7",
"6 	c #1E1F20",
"7 	c #522F04",
"8 	c #774708",
"9 	c #6D4106",
"0 	c #331C01",
"a 	c #775200",
"b 	c #FECB8B",
"c 	c #EFCDA7",
"d 	c #C69858",
"e 	c #B47C00",
"f 	c #B78D56",
"g 	c #B5ACA4",
"h 	c #808488",
"i 	c #7B5819",
"j 	c #E4A100",
"k 	c #E19F06",
"l 	c #A67504",
"m 	c #503600",
"n 	c #7D5200",
"o 	c #C69651",
"p 	c #EFCCA6",
"q 	c #B8A28A",
"r 	c #7C570F",
"s 	c #E3A324",
"t 	c #FFDEBC",
"u 	c #E4E2E1",
"v 	c #797978",
"w 	c #825600",
"x 	c #B88104",
"y 	c #BC8404",
"z 	c #DD9B00",
"A 	c #FABA57",
"B 	c #FAD1A4",
"C 	c #DDB585",
"D 	c #BC925C",
"E 	c #B8AFA6",
"F 	c #88898A",
"G 	c #151718",
"H 	c #563204",
"I 	c #794808",
"J 	c #6F4207",
"K 	c #472803",
"L 	c #000001",
"M 	c #765000",
"N 	c #FCD4A7",
"O 	c #E7D7C9",
"P 	c #9E866A",
"Q 	c #784E00",
"R 	c #7D6039",
"S 	c #7B756F",
"T 	c #53575B",
"U 	c #6B4B0E",
"V 	c #CD9101",
"W 	c #F0AA00",
"X 	c #9E6F0B",
"Y 	c #C29351",
"Z 	c #F1C693",
"` 	c #E4D9CF",
" .	c #A1A4A6",
"..	c #7A5719",
"+.	c #FCDCBA",
"@.	c #E2E1DF",
"#.	c #767677",
"$.	c #1E1200",
"%.	c #352300",
"&.	c #B87F00",
"*.	c #F7C077",
"=.	c #F7EADE",
"-.	c #B8B8B8",
";.	c #352F28",
">.	c #1E1B18",
",.	c #171818",
"'.	c #120801",
").	c #311A01",
"!.	c #5E3705",
"~.	c #774808",
"{.	c #6F4306",
"].	c #442503",
"^.	c #765200",
"/.	c #E2A012",
"(.	c #FBBC5C",
"_.	c #F3BC70",
":.	c #E4A63A",
"<.	c #DE9B00",
"[.	c #DFAD6B",
"}.	c #DDD2C9",
"|.	c #A3A5A6",
"1.	c #3E3020",
"2.	c #734E00",
"3.	c #C88F1B",
"4.	c #F2AD1D",
"5.	c #E6A527",
"6.	c #EECBA6",
"7.	c #E7DACF",
"8.	c #9D9893",
"9.	c #474C50",
"0.	c #E2A226",
"a.	c #B67D00",
"b.	c #F6C078",
"c.	c #F6EBE0",
"d.	c #B6B8BA",
"e.	c #1E2123",
"f.	c #633C05",
"g.	c #744607",
"h.	c #8F6504",
"i.	c #8E6404",
"j.	c #614303",
"k.	c #775100",
"l.	c #E29F00",
"m.	c #FBC783",
"n.	c #EDC9A0",
"o.	c #C5944D",
"p.	c #B57900",
"q.	c #B78B4F",
"r.	c #B5ACA3",
"s.	c #838588",
"t.	c #563D13",
"u.	c #A47416",
"v.	c #DDB78A",
"w.	c #EECCA7",
"x.	c #CA9B5C",
"y.	c #DDB688",
"z.	c #C29249",
"A.	c #7A4D00",
"B.	c #785100",
"C.	c #E1A00F",
"D.	c #FCDBB8",
"E.	c #E2E0DF",
"F.	c #251600",
"G.	c #B67C00",
"H.	c #F6BF73",
"I.	c #F6EADF",
"J.	c #252525",
"K.	c #412C01",
"L.	c #825C03",
"M.	c #916604",
"N.	c #976E02",
"O.	c #956D02",
"P.	c #664900",
"Q.	c #785A32",
"R.	c #E2B171",
"S.	c #FDE2C8",
"T.	c #E7E5E3",
"U.	c #9F9D9C",
"V.	c #787572",
"W.	c #7D7A78",
"X.	c #7B7B7A",
"Y.	c #51565A",
"Z.	c #765201",
"`.	c #E0A021",
" +	c #F1CDA7",
".+	c #CECBC9",
"++	c #746F6B",
"@+	c #A47100",
"#+	c #E5A741",
"$+	c #F1B96C",
"%+	c #B28A56",
"&+	c #7B5D35",
"*+	c #FDE3CA",
"=+	c #E2E1E0",
"-+	c #251A0C",
";+	c #F7CD9C",
">+	c #F7EDE5",
",+	c #B7B8B9",
"'+	c #453000",
")+	c #896301",
"!+	c #986F02",
"~+	c #754506",
"{+	c #764606",
"]+	c #4B1E00",
"^+	c #766F69",
"/+	c #E0D5CC",
"(+	c #F9F3EE",
"_+	c #F2F2F2",
":+	c #E3E4E4",
"<+	c #DEDFDF",
"[+	c #DFE0E0",
"}+	c #DDDDDD",
"|+	c #9FA2A3",
"1+	c #7A581F",
"2+	c #DE9D05",
"3+	c #C89958",
"4+	c #6F6C6B",
"5+	c #303335",
"6+	c #4A2600",
"7+	c #9A8369",
"8+	c #E3D5C9",
"9+	c #B4ACA4",
"0+	c #7A746E",
"a+	c #DFD5CB",
"b+	c #FAF4EF",
"c+	c #E0E0DF",
"d+	c #747575",
"e+	c #242220",
"f+	c #F4EBE3",
"g+	c #F4F2F0",
"h+	c #B5B5B5",
"i+	c #242424",
"j+	c #341C01",
"k+	c #6B3E05",
"l+	c #774607",
"m+	c #662C08",
"n+	c #662D08",
"o+	c #672D08",
"p+	c #652D08",
"q+	c #430900",
"r+	c #545556",
"s+	c #A5A7A9",
"t+	c #B7B9BA",
"u+	c #B6B7B7",
"v+	c #B9B9B9",
"w+	c #B9BABA",
"x+	c #BABABA",
"y+	c #848688",
"z+	c #594019",
"A+	c #A37200",
"B+	c #845A00",
"C+	c #4D5357",
"D+	c #A2A5A7",
"E+	c #57595A",
"F+	c #A5A7A8",
"G+	c #B9BABB",
"H+	c #A5A6A6",
"I+	c #535454",
"J+	c #121718",
"K+	c #B5B6B8",
"L+	c #B5B5B6",
"M+	c #848585",
"N+	c #2A0E01",
"O+	c #5C2807",
"P+	c #672E08",
"Q+	c #682F08",
"R+	c #683008",
"S+	c #673008",
"T+	c #512404",
"U+	c #33190D",
"V+	c #392721",
"W+	c #3C2B26",
"X+	c #3C2B25",
"Y+	c #3C2A25",
"Z+	c #352019",
"`+	c #311603",
" @	c #391D01",
".@	c #361A02",
"+@	c #2E1202",
"@@	c #2E1102",
"#@	c #2E1100",
"$@	c #31180D",
"%@	c #392720",
"&@	c #362119",
"*@	c #31190E",
"=@	c #3A2721",
"-@	c #3D2C26",
";@	c #2E1101",
">@	c #2E1203",
",@	c #2C1001",
"'@	c #3E1A03",
")@	c #602C07",
"!@	c #693108",
"~@	c #672F08",
"{@	c #622D07",
"]@	c #5D2903",
"^@	c #5B2600",
"/@	c #5B2500",
"(@	c #5C2800",
"_@	c #5C2A06",
":@	c #5B2806",
"<@	c #5C2906",
"[@	c #5D2A06",
"}@	c #5D2A07",
"|@	c #5C2903",
"1@	c #5B2400",
"2@	c #5F2B07",
"3@	c #652F08",
"4@	c #512305",
"5@	c #492004",
"6@	c #4A2104",
"7@	c #4B2104",
"8@	c #4C2104",
"9@	c #481E04",
"0@	c #5B3304",
"a@	c #2F1002",
"b@	c #1E0A01",
"c@	c #2D0803",
"d@	c #2C0503",
"e@	c #2D0504",
"f@	c #280503",
"g@	c #130201",
"h@	c #060200",
"i@	c #090200",
"j@	c #4B3600",
"k@	c #2E1002",
"l@	c #411C03",
"m@	c #5B2608",
"n@	c #58160C",
"o@	c #560D0D",
"p@	c #570D0E",
"q@	c #4D0A0B",
"r@	c #250203",
"s@	c #4A3600",
"t@	c #471606",
"u@	c #64240C",
"v@	c #65240D",
"w@	c #631C0E",
"x@	c #611110",
"y@	c #611010",
"z@	c #601010",
"A@	c #540D0D",
"B@	c #460909",
"C@	c #450909",
"D@	c #310404",
"E@	c #040000",
"F@	c #440E07",
"G@	c #621E0D",
"H@	c #66280B",
"I@	c #63210D",
"J@	c #601110",
"K@	c #5F1010",
"L@	c #4B0A0A",
"M@	c #390606",
"N@	c #4E0B0B",
"O@	c #3D0707",
"P@	c #060000",
"Q@	c #481C05",
"R@	c #65280B",
"S@	c #631E0E",
"T@	c #61150F",
"U@	c #5B0F0F",
"V@	c #500C0C",
"W@	c #360505",
"X@	c #1B0202",
"Y@	c #020000",
"Z@	c #461606",
"`@	c #63230C",
" #	c #621B0E",
".#	c #440808",
"+#	c #300404",
"@#	c #2E0F02",
"##	c #440E08",
"$#	c #621E0E",
"%#	c #493500",
"&#	c #311302",
"*#	c #481D05",
"=#	c #64280B",
"-#	c #4C3800",
";#	c #5A3304",
">#	c #502205",
",#	c #60230B",
"'#	c #0B0600",
")#	c #533D00",
"!#	c #775701",
"~#	c #744506",
"{#	c #461B04",
"]#	c #311102",
"^#	c #5C2608",
"/#	c #64210D",
"(#	c #4F0B0B",
"_#	c #3E0707",
":#	c #130C00",
"<#	c #755700",
"[#	c #956C02",
"}#	c #471B04",
"|#	c #2C0803",
"1#	c #62160F",
"2#	c #4F0C0C",
"3#	c #350505",
"4#	c #1A0101",
"5#	c #010000",
"6#	c #140C00",
"7#	c #765800",
"8#	c #966D02",
"9#	c #2E0D03",
"0#	c #5A1F0A",
"a#	c #180101",
"b#	c #4C0A0A",
"c#	c #290303",
"d#	c #0E0101",
"e#	c #2D0903",
"f#	c #5C0F0F",
"g#	c #4D0B0B",
"h#	c #240303",
"i#	c #0C0101",
"j#	c #260303",
"k#	c #550D0D",
"l#	c #3F0707",
"m#	c #190101",
"n#	c #0D0101",
"o#	c #5E1010",
"p#	c #744406",
"q#	c #441804",
"r#	c #2C0B02",
"s#	c #5B1F0A",
"t#	c #641C0F",
"u#	c #4A0A0A",
"v#	c #2F0404",
"w#	c #040200",
"x#	c #755800",
"y#	c #966E01",
"z#	c #7D5005",
"A#	c #583104",
"B#	c #3C1A03",
"C#	c #572606",
"D#	c #60200C",
"E#	c #570E0E",
"F#	c #2B0404",
"G#	c #1C1200",
"H#	c #453200",
"I#	c #7A5901",
"J#	c #906603",
"K#	c #805604",
"L#	c #592A05",
"M#	c #3B1703",
"N#	c #4B1009",
"O#	c #280303",
"P#	c #423000",
"Q#	c #836200",
"R#	c #865D03",
"S#	c #A07800",
"T#	c #8A5E04",
"U#	c #602E06",
"V#	c #2D0E02",
"W#	c #420508",
"X#	c #4B3700",
"Y#	c #926D00",
"Z#	c #895E04",
"`#	c #683108",
" $	c #9F7700",
".$	c #5F2E06",
"+$	c #430608",
"@$	c #580E0E",
"#$	c #906C00",
"$$	c #6A3308",
"%$	c #380606",
"&$	c #430708",
"*$	c #5E0F0F",
"=$	c #A07700",
"-$	c #8A5D00",
";$	c #5F2A00",
">$	c #2B0300",
",$	c #2C0000",
"'$	c #3A0000",
")$	c #130000",
"!$	c #493300",
"~$	c #916B00",
"{$	c #6A3000",
"]$	c #967739",
"^$	c #83633A",
"/$	c #61443A",
"($	c #3D383A",
"_$	c #2C3539",
":$	c #2F3539",
"<$	c #2E3539",
"[$	c #2D3539",
"}$	c #273339",
"|$	c #514839",
"1$	c #8A6E39",
"2$	c #69473A",
"  . + @ # $ % & * = - ; > , ' ) ! ~ # # { ] ^ / ( _ : < [ } | 1 2 3 4 ; > 5 6 # 7 8 ",
"  . 9 0 # a & b c d e f g h i j k l m n o p q r s t u v w x y z A B C D E F G # H 8 ",
"8 I J K L M 3 N O P Q R S T U V W j X Y Z `  ...* +.@.#.# $.%.&.*.=.-.;.>.,.'.).!.8 ",
". . ~.{.].^./.(._.:.<.[.}.|.1.2.3.4.5.6.7.8.9.a 0.+.@.#.# # $.a.b.c.d.e.# # @ f.g.. ",
"h.h.h.i.j.k.l.m.n.o.p.q.r.s.t.u.v.w.x.y.6.z.A.B.C.D.E.#.# # F.G.H.I.d.J.# # K.L.M.h.",
"N.N.N.O.P.Q.R.S.T.U.V.W.X.Y.Z.`. +.+++@+#+$+%+&+R.*+=+#.# # -+q.;+>+,+J.# # '+)+!+N.",
"~+{+{+~+]+^+/+(+_+:+<+[+}+|+1+2+3+4+5+6+7+8+9+0+a+b+c+d+# # e+r.f+g+h+i+# # j+k+l+{+",
"m+n+o+p+q+r+s+t+u+v+w+x+-.y+z+A+B+# # # C+D+y+E+F+G+H+I+# # J+y+K+L+M+J+# # N+O+P+n+",
"Q+R+R+S+T+U+V+W+X+X+X+X+Y+Z+`+ @.@+@@@#@$@%@&@*@=@-@=@$@#@;@>@&@X+X+&@>@;@,@'@)@!@R+",
"~@~@S+~@{@]@^@/@/@/@/@/@/@(@_@:@<@[@[@}@]@^@(@|@^@1@^@]@}@[@[@(@/@/@(@[@[@[@2@3@S+R+",
"4@5@5@5@6@7@7@7@7@7@7@7@7@7@7@8@8@8@8@8@8@8@8@8@8@8@8@8@8@8@8@8@8@8@8@8@8@8@8@7@9@0@",
"a@b@a@c@d@d@d@d@d@d@d@d@d@e@f@g@h@i@i@i@i@i@i@i@i@i@i@i@i@i@i@i@i@i@i@i@i@i@i@i@# j@",
"k@l@m@n@o@o@o@o@o@o@o@o@o@p@q@r@# # # # # # # # # # # # # # # # # # # # # # # # # s@",
"k@t@u@v@w@x@y@y@y@y@y@y@z@A@B@C@D@E@# # # # # # # # # # # # # # # # # # # # # # # s@",
"k@F@G@H@I@J@z@z@z@z@z@z@K@L@M@N@O@P@# # # # # # # # # # # # # # # # # # # # # # # s@",
"a@Q@R@S@T@z@z@z@z@z@z@z@z@U@V@W@X@Y@# # # # # # # # # # # # # # # # # # # # # # # s@",
"k@Z@`@u@ #J@z@z@z@z@z@z@z@A@C@.#+#E@# # # # # # # # # # # # # # # # # # # # # # # s@",
"k@F@G@H@I@J@z@z@z@z@z@z@K@L@M@N@O@P@# # # # # # # # # # # # # # # # # # # # # # # s@",
"a@Q@R@S@T@z@z@z@z@z@z@z@z@U@V@W@X@Y@# # # # # # # # # # # # # # # # # # # # # # # s@",
"k@Z@`@u@ #J@z@z@z@z@z@z@z@A@C@.#+#E@# # # # # # # # # # # # # # # # # # # # # # # s@",
"k@F@G@H@I@J@z@z@z@z@z@z@K@L@M@N@O@P@# # # # # # # # # # # # # # # # # # # # # # # s@",
"a@Q@R@S@T@z@z@z@z@z@z@z@z@U@V@W@X@Y@# # # # # # # # # # # # # # # # # # # # # # # s@",
"k@Z@`@u@ #J@z@z@z@z@z@z@z@A@C@.#+#E@# # # # # # # # # # # # # # # # # # # # # # # s@",
"k@F@G@H@I@J@z@z@z@z@z@z@K@L@M@N@O@P@# # # # # # # # # # # # # # # # # # # # # # # s@",
"a@Q@R@S@T@z@z@z@z@z@z@z@z@U@V@W@X@Y@# # # # # # # # # # # # # # # # # # # # # # # s@",
"k@Z@`@u@ #J@z@z@z@z@z@z@z@A@C@.#+#E@# # # # # # # # # # # # # # # # # # # # # # # s@",
"@###$#H@I@J@z@z@z@z@z@z@K@L@M@N@O@P@# # # # # # # # # # # # # # # # # # # # # # # %#",
"&#*#=#S@T@z@z@z@z@z@z@z@z@U@V@W@X@Y@# # # # # # # # # # # # # # # # # # # # # # # -#",
";#9@>#,#w@J@z@z@z@z@z@z@z@A@C@.#+#E@# # # # # # # # # # # # # # # # # # # # # '#)#!#",
"~#{#]#^#/#J@z@z@z@z@z@z@K@L@M@(#_#P@# # # # # # # # # # # # # # # # # # # # # :#<#[#",
"~+}#|#n@1#z@z@z@z@z@z@z@z@U@2#3#4#5## # # # # # # # # # # # # # # # # # # # # 6#7#8#",
"~+{#9#0#w@J@z@z@z@z@z@z@z@A@_#a## # # # # # # # # # # # # # # # # # # # # # # 6#7#8#",
"~+{#a@^#/#J@z@z@z@z@z@z@K@b#c#d## # # # # # # # # # # # # # # # # # # # # # # 6#7#8#",
"~+}#e#n@1#z@z@z@z@z@z@z@z@f#g#h## # # # # # # # # # # # # # # # # # # # # # # 6#7#8#",
"~+{#9#0#w@J@z@z@z@z@z@z@z@A@_#X@# # # # # # # # # # # # # # # # # # # # # # # 6#7#8#",
"~+{#a@^#/#J@z@z@z@z@z@z@K@b#c#i## # # # # # # # # # # # # # # # # # # # # # # 6#7#8#",
"~+}#e#n@1#z@z@z@z@z@z@z@z@f#g#j## # # # # # # # # # # # # # # # # # # # # # # 6#7#8#",
"~+{#9#0#w@J@z@z@z@z@z@z@z@A@B@C@D@E@# # # # # # # # # # # # # # # # # # # # # 6#7#8#",
"~+{#a@^#/#J@z@z@z@z@z@z@K@L@M@N@O@P@# # # # # # # # # # # # # # # # # # # # # 6#7#8#",
"~+}#e#n@1#z@z@z@z@z@z@z@z@U@V@W@X@Y@# # # # # # # # # # # # # # # # # # # # # 6#7#8#",
"~+{#9#0#w@J@z@z@z@z@z@z@z@A@C@.#+#E@# # # # # # # # # # # # # # # # # # # # # 6#7#8#",
"~+{#a@^#/#J@z@z@z@z@z@z@K@L@M@N@O@P@# # # # # # # # # # # # # # # # # # # # # 6#7#8#",
"~+}#e#n@1#z@z@z@z@z@z@z@z@U@V@W@X@Y@# # # # # # # # # # # # # # # # # # # # # 6#7#8#",
"~+{#9#0#w@J@z@z@z@z@z@z@z@A@C@.#+#E@# # # # # # # # # # # # # # # # # # # # # 6#7#8#",
"~+{#a@^#/#J@z@z@z@z@z@z@K@L@M@N@O@P@# # # # # # # # # # # # # # # # # # # # # 6#7#8#",
"~+}#e#n@1#z@z@z@z@z@z@z@z@U@V@W@X@Y@# # # # # # # # # # # # # # # # # # # # # 6#7#8#",
"~+{#9#0#w@J@z@z@z@z@z@z@z@A@C@.#+#E@# # # # # # # # # # # # # # # # # # # # # 6#7#8#",
"~+{#a@^#/#J@z@z@z@z@z@z@K@L@M@(#_#P@# # # # # # # # # # # # # # # # # # # # # 6#7#8#",
"~+}#e#n@1#z@z@z@z@z@z@z@z@U@2#3#4#5## # # # # # # # # # # # # # # # # # # # # 6#7#8#",
"~+{#9#0#w@J@z@z@z@z@z@z@z@k#l#m## # # # # # # # # # # # # # # # # # # # # # # 6#7#8#",
"~+{#a@^#/#J@z@z@z@z@z@z@K@C@n## # # # # # # # # # # # # # # # # # # # # # # # 6#7#8#",
"~+}#e#n@1#z@z@z@z@z@z@z@o#.#P@# # # # # # # # # # # # # # # # # # # # # # # # 6#7#8#",
"p#q#r#s#t#J@z@z@z@z@z@f#u#v#E@# # # # # # # # # # # # # # # # # # # # # # 5## w#x#y#",
"z#A#B#C#D#J@z@z@z@z@y@E#F## # # # # # # # # # # # # # # # # # # # # # # # # G#H#I#J#",
"N.K#L#M#N#K@z@z@z@z@z@o@O## # # # # # # # # # # # # # # # # # # # # # # # # P#Q#R#{+",
"S#T#U#V#W#K@z@z@z@z@k#_#X@# # # # # # # # # # # # # # # # # # # # # # # # # X#Y#Z#`#",
" $Z#.$@#+$K@z@z@K@@$_#i## # # # # # # # # # # # # # # # # # # # # # # # # # s@#$Z#$$",
" $Z#.$@#+$K@z@z@@$%$a## # # # # # # # # # # # # # # # # # # # # # # # # # # s@#$Z#$$",
" $Z#.$@#+$K@y@k#_#a## # # # # # # # # # # # # # # # # # # # # # # # # # # # s@#$Z#$$",
" $Z#.$@#&$*$@$_#i## # # # # # # # # # # # # # # # # # # # # # # # # # # # # s@#$Z#$$",
" $Z#.$@#&$E#%$a## # # # # # # # # # # # # # # # # # # # # # # # # # # # # # s@#$Z#$$",
"=$-$;$>$,$'$)$# # # # # # # # # # # # # # # # # # # # # # # # # # # # # # # !$~$-${$",
"]$^$/$($_$:$<$[$[$[$[$[$[$[$[$[$[$[$[$[$[$[$[$[$[$[$[$[$[$[$[$[$[$[$[$[$[$}$|$1$^$2$"};
