/* XPM */
static char * exit_xpm[] = {
"42 42 339 2",
"  	c #784808",
". 	c #794908",
"+ 	c #6A3F06",
"@ 	c #301A01",
"# 	c #000000",
"$ 	c #6A4901",
"% 	c #CD9106",
"& 	c #E4A21C",
"* 	c #E1A122",
"= 	c #E09F11",
"- 	c #DF9C00",
"; 	c #E0AE6B",
"> 	c #DDD3C9",
", 	c #A1A4A7",
"' 	c #705120",
") 	c #CB8F00",
"! 	c #AA7803",
"~ 	c #2F1E00",
"{ 	c #704F0D",
"] 	c #CC9222",
"^ 	c #A5761A",
"/ 	c #6F4C00",
"( 	c #CD9322",
"_ 	c #E6C8A9",
": 	c #CDCCCB",
"< 	c #6F6D6C",
"[ 	c #A16E00",
"} 	c #DD9D06",
"| 	c #E09F06",
"1 	c #E19F05",
"2 	c #E2A011",
"3 	c #E2A122",
"4 	c #E19E00",
"5 	c #A4A5A7",
"6 	c #1E1F20",
"7 	c #522F04",
"8 	c #774708",
"9 	c #794808",
"0 	c #6F4207",
"a 	c #472803",
"b 	c #000001",
"c 	c #765000",
"d 	c #FCD4A7",
"e 	c #E7D7C9",
"f 	c #9E866A",
"g 	c #784E00",
"h 	c #7D6039",
"i 	c #7B756F",
"j 	c #53575B",
"k 	c #6B4B0E",
"l 	c #CD9101",
"m 	c #F0AA00",
"n 	c #E4A100",
"o 	c #9E6F0B",
"p 	c #C29351",
"q 	c #F1C693",
"r 	c #E4D9CF",
"s 	c #A1A4A6",
"t 	c #7A5719",
"u 	c #FCDCBA",
"v 	c #E2E1DF",
"w 	c #767677",
"x 	c #1E1200",
"y 	c #352300",
"z 	c #B87F00",
"A 	c #F7C077",
"B 	c #F7EADE",
"C 	c #B8B8B8",
"D 	c #352F28",
"E 	c #1E1B18",
"F 	c #171818",
"G 	c #120801",
"H 	c #311A01",
"I 	c #5E3705",
"J 	c #774808",
"K 	c #6F4306",
"L 	c #442503",
"M 	c #765200",
"N 	c #E2A012",
"O 	c #FBBC5C",
"P 	c #F3BC70",
"Q 	c #E4A63A",
"R 	c #DE9B00",
"S 	c #DFAD6B",
"T 	c #DDD2C9",
"U 	c #A3A5A6",
"V 	c #3E3020",
"W 	c #734E00",
"X 	c #C88F1B",
"Y 	c #F2AD1D",
"Z 	c #E6A527",
"` 	c #EECBA6",
" .	c #E7DACF",
"..	c #9D9893",
"+.	c #474C50",
"@.	c #775200",
"#.	c #E2A226",
"$.	c #B67D00",
"%.	c #F6C078",
"&.	c #F6EBE0",
"*.	c #B6B8BA",
"=.	c #1E2123",
"-.	c #633C05",
";.	c #744607",
">.	c #976E02",
",.	c #956D02",
"'.	c #664900",
").	c #785A32",
"!.	c #E2B171",
"~.	c #FDE2C8",
"{.	c #E7E5E3",
"].	c #9F9D9C",
"^.	c #787572",
"/.	c #7D7A78",
"(.	c #7B7B7A",
"_.	c #51565A",
":.	c #765201",
"<.	c #E0A021",
"[.	c #F1CDA7",
"}.	c #CECBC9",
"|.	c #746F6B",
"1.	c #A47100",
"2.	c #E5A741",
"3.	c #F1B96C",
"4.	c #B28A56",
"5.	c #7B5D35",
"6.	c #FDE3CA",
"7.	c #E2E1E0",
"8.	c #251A0C",
"9.	c #B78B4F",
"0.	c #F7CD9C",
"a.	c #F7EDE5",
"b.	c #B7B8B9",
"c.	c #252525",
"d.	c #453000",
"e.	c #896301",
"f.	c #986F02",
"g.	c #754506",
"h.	c #764606",
"i.	c #4B1E00",
"j.	c #766F69",
"k.	c #E0D5CC",
"l.	c #F9F3EE",
"m.	c #F2F2F2",
"n.	c #E3E4E4",
"o.	c #DEDFDF",
"p.	c #DFE0E0",
"q.	c #DDDDDD",
"r.	c #9FA2A3",
"s.	c #7A581F",
"t.	c #DE9D05",
"u.	c #C89958",
"v.	c #6F6C6B",
"w.	c #303335",
"x.	c #4A2600",
"y.	c #9A8369",
"z.	c #E3D5C9",
"A.	c #B4ACA4",
"B.	c #7A746E",
"C.	c #DFD5CB",
"D.	c #FAF4EF",
"E.	c #E0E0DF",
"F.	c #747575",
"G.	c #242220",
"H.	c #B5ACA3",
"I.	c #F4EBE3",
"J.	c #F4F2F0",
"K.	c #B5B5B5",
"L.	c #242424",
"M.	c #341C01",
"N.	c #6B3E05",
"O.	c #774607",
"P.	c #682F08",
"Q.	c #683008",
"R.	c #673008",
"S.	c #512404",
"T.	c #33190D",
"U.	c #392721",
"V.	c #3C2B26",
"W.	c #3C2B25",
"X.	c #3C2A25",
"Y.	c #352019",
"Z.	c #311603",
"`.	c #391D01",
" +	c #361A02",
".+	c #2E1202",
"++	c #2E1102",
"@+	c #2E1100",
"#+	c #31180D",
"$+	c #392720",
"%+	c #362119",
"&+	c #31190E",
"*+	c #3A2721",
"=+	c #3D2C26",
"-+	c #2E1101",
";+	c #2E1203",
">+	c #2C1001",
",+	c #3E1A03",
"'+	c #602C07",
")+	c #693108",
"!+	c #672F08",
"~+	c #622D07",
"{+	c #5D2903",
"]+	c #5B2600",
"^+	c #5B2500",
"/+	c #5C2800",
"(+	c #5C2A06",
"_+	c #5B2806",
":+	c #5C2906",
"<+	c #5D2A06",
"[+	c #5D2A07",
"}+	c #5C2903",
"|+	c #5B2400",
"1+	c #5F2B07",
"2+	c #652F08",
"3+	c #2F1002",
"4+	c #1E0A01",
"5+	c #2D0803",
"6+	c #2C0503",
"7+	c #2D0504",
"8+	c #280503",
"9+	c #130201",
"0+	c #060200",
"a+	c #090200",
"b+	c #4B3600",
"c+	c #2E1002",
"d+	c #411C03",
"e+	c #5B2608",
"f+	c #58160C",
"g+	c #560D0D",
"h+	c #570D0E",
"i+	c #4D0A0B",
"j+	c #250203",
"k+	c #4A3600",
"l+	c #440E07",
"m+	c #621E0D",
"n+	c #66280B",
"o+	c #63210D",
"p+	c #601110",
"q+	c #601010",
"r+	c #5F1010",
"s+	c #4B0A0A",
"t+	c #390606",
"u+	c #4E0B0B",
"v+	c #3D0707",
"w+	c #060000",
"x+	c #481C05",
"y+	c #65280B",
"z+	c #631E0E",
"A+	c #61150F",
"B+	c #5B0F0F",
"C+	c #500C0C",
"D+	c #360505",
"E+	c #1B0202",
"F+	c #020000",
"G+	c #2E0F02",
"H+	c #440E08",
"I+	c #621E0E",
"J+	c #493500",
"K+	c #311302",
"L+	c #481D05",
"M+	c #64280B",
"N+	c #4C3800",
"O+	c #744506",
"P+	c #461B04",
"Q+	c #311102",
"R+	c #5C2608",
"S+	c #64210D",
"T+	c #4F0B0B",
"U+	c #3E0707",
"V+	c #130C00",
"W+	c #755700",
"X+	c #956C02",
"Y+	c #471B04",
"Z+	c #2C0803",
"`+	c #62160F",
" @	c #4F0C0C",
".@	c #350505",
"+@	c #1A0101",
"@@	c #010000",
"#@	c #140C00",
"$@	c #765800",
"%@	c #966D02",
"&@	c #4C0A0A",
"*@	c #290303",
"=@	c #0E0101",
"-@	c #2D0903",
";@	c #5C0F0F",
">@	c #4D0B0B",
",@	c #240303",
"'@	c #0C0101",
")@	c #260303",
"!@	c #450909",
"~@	c #0D0101",
"{@	c #5E1010",
"]@	c #440808",
"^@	c #7D5005",
"/@	c #583104",
"(@	c #3C1A03",
"_@	c #572606",
":@	c #60200C",
"<@	c #611010",
"[@	c #570E0E",
"}@	c #2B0404",
"|@	c #1C1200",
"1@	c #453200",
"2@	c #7A5901",
"3@	c #906603",
"4@	c #805604",
"5@	c #592A05",
"6@	c #3B1703",
"7@	c #4B1009",
"8@	c #280303",
"9@	c #423000",
"0@	c #836200",
"a@	c #865D03",
"b@	c #9F7700",
"c@	c #895E04",
"d@	c #5F2E06",
"e@	c #430608",
"f@	c #580E0E",
"g@	c #906C00",
"h@	c #6A3308",
"i@	c #380606",
"j@	c #180101",
"k@	c #430708",
"l@	c #5E0F0F",
"m@	c #967739",
"n@	c #83633A",
"o@	c #61443A",
"p@	c #3D383A",
"q@	c #2C3539",
"r@	c #2F3539",
"s@	c #2E3539",
"t@	c #2D3539",
"u@	c #273339",
"v@	c #514839",
"w@	c #8A6E39",
"x@	c #69473A",
"  . + @ # $ % & * = - ; > , ' ) ! ~ # # { ] ^ / ( _ : < [ } | 1 2 3 4 ; > 5 6 # 7 8 ",
"8 9 0 a b c 3 d e f g h i j k l m n o p q r s t * u v w # x y z A B C D E F G H I 8 ",
". . J K L M N O P Q R S T U V W X Y Z `  ...+.@.#.u v w # # x $.%.&.*.=.# # @ -.;.. ",
">.>.>.,.'.).!.~.{.].^./.(._.:.<.[.}.|.1.2.3.4.5.!.6.7.w # # 8.9.0.a.b.c.# # d.e.f.>.",
"g.h.h.g.i.j.k.l.m.n.o.p.q.r.s.t.u.v.w.x.y.z.A.B.C.D.E.F.# # G.H.I.J.K.L.# # M.N.O.h.",
"P.Q.Q.R.S.T.U.V.W.W.W.W.X.Y.Z.`. +.+++@+#+$+%+&+*+=+*+#+@+-+;+%+W.W.%+;+-+>+,+'+)+Q.",
"!+!+R.!+~+{+]+^+^+^+^+^+^+/+(+_+:+<+<+[+{+]+/+}+]+|+]+{+[+<+<+/+^+^+/+<+<+<+1+2+R.Q.",
"3+4+3+5+6+6+6+6+6+6+6+6+6+7+8+9+0+a+a+a+a+a+a+a+a+a+a+a+a+a+a+a+a+a+a+a+a+a+a+a+# b+",
"c+d+e+f+g+g+g+g+g+g+g+g+g+h+i+j+# # # # # # # # # # # # # # # # # # # # # # # # # k+",
"c+l+m+n+o+p+q+q+q+q+q+q+r+s+t+u+v+w+# # # # # # # # # # # # # # # # # # # # # # # k+",
"3+x+y+z+A+q+q+q+q+q+q+q+q+B+C+D+E+F+# # # # # # # # # # # # # # # # # # # # # # # k+",
"c+l+m+n+o+p+q+q+q+q+q+q+r+s+t+u+v+w+# # # # # # # # # # # # # # # # # # # # # # # k+",
"3+x+y+z+A+q+q+q+q+q+q+q+q+B+C+D+E+F+# # # # # # # # # # # # # # # # # # # # # # # k+",
"c+l+m+n+o+p+q+q+q+q+q+q+r+s+t+u+v+w+# # # # # # # # # # # # # # # # # # # # # # # k+",
"3+x+y+z+A+q+q+q+q+q+q+q+q+B+C+D+E+F+# # # # # # # # # # # # # # # # # # # # # # # k+",
"c+l+m+n+o+p+q+q+q+q+q+q+r+s+t+u+v+w+# # # # # # # # # # # # # # # # # # # # # # # k+",
"3+x+y+z+A+q+q+q+q+q+q+q+q+B+C+D+E+F+# # # # # # # # # # # # # # # # # # # # # # # k+",
"G+H+I+n+o+p+q+q+q+q+q+q+r+s+t+u+v+w+# # # # # # # # # # # # # # # # # # # # # # # J+",
"K+L+M+z+A+q+q+q+q+q+q+q+q+B+C+D+E+F+# # # # # # # # # # # # # # # # # # # # # # # N+",
"O+P+Q+R+S+p+q+q+q+q+q+q+r+s+t+T+U+w+# # # # # # # # # # # # # # # # # # # # # V+W+X+",
"g.Y+Z+f+`+q+q+q+q+q+q+q+q+B+ @.@+@@@# # # # # # # # # # # # # # # # # # # # # #@$@%@",
"g.P+3+R+S+p+q+q+q+q+q+q+r+&@*@=@# # # # # # # # # # # # # # # # # # # # # # # #@$@%@",
"g.Y+-@f+`+q+q+q+q+q+q+q+q+;@>@,@# # # # # # # # # # # # # # # # # # # # # # # #@$@%@",
"g.P+3+R+S+p+q+q+q+q+q+q+r+&@*@'@# # # # # # # # # # # # # # # # # # # # # # # #@$@%@",
"g.Y+-@f+`+q+q+q+q+q+q+q+q+;@>@)@# # # # # # # # # # # # # # # # # # # # # # # #@$@%@",
"g.P+3+R+S+p+q+q+q+q+q+q+r+s+t+u+v+w+# # # # # # # # # # # # # # # # # # # # # #@$@%@",
"g.Y+-@f+`+q+q+q+q+q+q+q+q+B+C+D+E+F+# # # # # # # # # # # # # # # # # # # # # #@$@%@",
"g.P+3+R+S+p+q+q+q+q+q+q+r+s+t+u+v+w+# # # # # # # # # # # # # # # # # # # # # #@$@%@",
"g.Y+-@f+`+q+q+q+q+q+q+q+q+B+C+D+E+F+# # # # # # # # # # # # # # # # # # # # # #@$@%@",
"g.P+3+R+S+p+q+q+q+q+q+q+r+s+t+u+v+w+# # # # # # # # # # # # # # # # # # # # # #@$@%@",
"g.Y+-@f+`+q+q+q+q+q+q+q+q+B+C+D+E+F+# # # # # # # # # # # # # # # # # # # # # #@$@%@",
"g.P+3+R+S+p+q+q+q+q+q+q+r+s+t+T+U+w+# # # # # # # # # # # # # # # # # # # # # #@$@%@",
"g.Y+-@f+`+q+q+q+q+q+q+q+q+B+ @.@+@@@# # # # # # # # # # # # # # # # # # # # # #@$@%@",
"g.P+3+R+S+p+q+q+q+q+q+q+r+!@~@# # # # # # # # # # # # # # # # # # # # # # # # #@$@%@",
"g.Y+-@f+`+q+q+q+q+q+q+q+{@]@w+# # # # # # # # # # # # # # # # # # # # # # # # #@$@%@",
"^@/@(@_@:@p+q+q+q+q+<@[@}@# # # # # # # # # # # # # # # # # # # # # # # # # |@1@2@3@",
">.4@5@6@7@r+q+q+q+q+q+g+8@# # # # # # # # # # # # # # # # # # # # # # # # # 9@0@a@h.",
"b@c@d@G+e@r+q+q+r+f@U+'@# # # # # # # # # # # # # # # # # # # # # # # # # # k+g@c@h@",
"b@c@d@G+e@r+q+q+f@i@j@# # # # # # # # # # # # # # # # # # # # # # # # # # # k+g@c@h@",
"b@c@d@G+k@l@f@U+'@# # # # # # # # # # # # # # # # # # # # # # # # # # # # # k+g@c@h@",
"b@c@d@G+k@[@i@j@# # # # # # # # # # # # # # # # # # # # # # # # # # # # # # k+g@c@h@",
"m@n@o@p@q@r@s@t@t@t@t@t@t@t@t@t@t@t@t@t@t@t@t@t@t@t@t@t@t@t@t@t@t@t@t@t@t@u@v@w@n@x@"};
