/* XPM */
static char * player2_xpm[] = {
"43 42 787 2",
"  	c #CEBC8D",
". 	c #CDBC8E",
"+ 	c #CDBD8F",
"@ 	c #CEBF95",
"# 	c #CDBC8D",
"$ 	c #CEBC8E",
"% 	c #CDBD90",
"& 	c #CBB988",
"* 	c #CEBD8F",
"= 	c #CFBF91",
"- 	c #CBB786",
"; 	c #CFBD8B",
"> 	c #D2BC8C",
", 	c #D4BE8C",
"' 	c #D2BD90",
") 	c #CDB98B",
"! 	c #683500",
"~ 	c #CDB687",
"{ 	c #CEBC8B",
"] 	c #D0BE91",
"^ 	c #CBBA8B",
"/ 	c #CBB888",
"( 	c #CEBB89",
"_ 	c #C7B17E",
": 	c #C4AE78",
"< 	c #C2AB76",
"[ 	c #C2AC78",
"} 	c #C5B282",
"| 	c #C8B585",
"1 	c #CFB787",
"2 	c #D3BD8F",
"3 	c #D4BF92",
"4 	c #D5C193",
"5 	c #D0BC8D",
"6 	c #CDB887",
"7 	c #CFBC8D",
"8 	c #CDBB8C",
"9 	c #D0C093",
"0 	c #CFBF93",
"a 	c #CFBE90",
"b 	c #CFBE8F",
"c 	c #CDBB8B",
"d 	c #CEBA88",
"e 	c #C8B682",
"f 	c #C7B37F",
"g 	c #BFA873",
"h 	c #C2AD79",
"i 	c #CAB787",
"j 	c #C2AE7C",
"k 	c #C6B17E",
"l 	c #CDB686",
"m 	c #CAB481",
"n 	c #CBB684",
"o 	c #FF9A39",
"p 	c #C3A873",
"q 	c #C8AE77",
"r 	c #C8AF7C",
"s 	c #C0AC79",
"t 	c #C3AF7A",
"u 	c #C4AF78",
"v 	c #C0A970",
"w 	c #C0A96F",
"x 	c #C2A86D",
"y 	c #C0A76C",
"z 	c #C1AC75",
"A 	c #BFA976",
"B 	c #CAB382",
"C 	c #FFE1B2",
"D 	c #C5B281",
"E 	c #C8B686",
"F 	c #CCB684",
"G 	c #CFB986",
"H 	c #D0BA8A",
"I 	c #CDB889",
"J 	c #CEBE90",
"K 	c #CFC093",
"L 	c #CEBD90",
"M 	c #C8B37E",
"N 	c #C4AC76",
"O 	c #C4A76B",
"P 	c #C6A76A",
"Q 	c #C5A66B",
"R 	c #CAAE74",
"S 	c #AF9661",
"T 	c #C7AF74",
"U 	c #BBA86D",
"V 	c #C2AB6F",
"W 	c #C6A468",
"X 	c #C4A266",
"Y 	c #CDAB6D",
"Z 	c #C9A266",
"` 	c #CCA466",
" .	c #C9A566",
"..	c #BDA36E",
"+.	c #D3B97C",
"@.	c #B39861",
"#.	c #B39C63",
"$.	c #C8AA6D",
"%.	c #C7A86A",
"&.	c #C4A469",
"*.	c #BEA36A",
"=.	c #B09761",
"-.	c #CAA468",
";.	c #C7A366",
">.	c #C8A66A",
",.	c #C7AE75",
"'.	c #C6AE7C",
").	c #D1BA86",
"!.	c #D1BA88",
"~.	c #CFBE91",
"{.	c #D0BF93",
"].	c #CFBF94",
"^.	c #CFBF90",
"/.	c #C1AB76",
"(.	c #BBA36B",
"_.	c #C7AB6E",
":.	c #C8A96C",
"<.	c #C6A86D",
"[.	c #C7AD72",
"}.	c #A48C59",
"|.	c #B59D67",
"1.	c #BC9E65",
"2.	c #D3BD7B",
"3.	c #FFFFFF",
"4.	c #C7A265",
"5.	c #BA9E65",
"6.	c #D1AE70",
"7.	c #D5B371",
"8.	c #BE9E65",
"9.	c #CDB477",
"0.	c #D4B272",
"a.	c #D5BD7C",
"b.	c #C0A46A",
"c.	c #BEA56B",
"d.	c #C8AB6E",
"e.	c #C6A86E",
"f.	c #C7A86D",
"g.	c #AE9662",
"h.	c #A58D5A",
"i.	c #B29662",
"j.	c #CBA569",
"k.	c #C9A367",
"l.	c #C9A368",
"m.	c #C6A469",
"n.	c #D0B884",
"o.	c #CFBB8B",
"p.	c #CFBD8F",
"q.	c #CEBB8A",
"r.	c #C7B27F",
"s.	c #BFA56C",
"t.	c #CDB374",
"u.	c #A68E5A",
"v.	c #BD9E65",
"w.	c #B89D64",
"x.	c #B89D65",
"y.	c #C7A368",
"z.	c #CAAB70",
"A.	c #BBA26A",
"B.	c #C7A869",
"C.	c #B99C63",
"D.	c #BDA36A",
"E.	c #9E8858",
"F.	c #BE9C62",
"G.	c #D4B878",
"H.	c #C6A46B",
"I.	c #CDAF72",
"J.	c #C2A970",
"K.	c #A38956",
"L.	c #9F8756",
"M.	c #C8A86A",
"N.	c #C49F64",
"O.	c #C7A469",
"P.	c #C6A368",
"Q.	c #CCA467",
"R.	c #CCA266",
"S.	c #CDA86B",
"T.	c #C6A769",
"U.	c #BDA068",
"V.	c #CCB481",
"W.	c #CDB98A",
"X.	c #CDBA88",
"Y.	c #CDBA86",
"Z.	c #C7AF79",
"`.	c #C6A669",
" +	c #A18E5B",
".+	c #AF975F",
"++	c #B59B62",
"@+	c #C29D62",
"#+	c #CAA76B",
"$+	c #CAA86D",
"%+	c #C8A76B",
"&+	c #CDB275",
"*+	c #CDB074",
"=+	c #DCC581",
"-+	c #CDBA7F",
";+	c #C1AF76",
">+	c #AA9460",
",+	c #C8A367",
"'+	c #C9A56A",
")+	c #D5B271",
"!+	c #A48D59",
"~+	c #9B8958",
"{+	c #A58E5C",
"]+	c #B59B63",
"^+	c #C9A76B",
"/+	c #C5A368",
"(+	c #CAA367",
"_+	c #CFAA6A",
":+	c #CCAF73",
"<+	c #CEB778",
"[+	c #CBB67F",
"}+	c #CFBB8C",
"|+	c #CDBB88",
"1+	c #CCB784",
"2+	c #C5AC77",
"3+	c #B39C65",
"4+	c #CFB374",
"5+	c #C7A468",
"6+	c #C6B074",
"7+	c #BB9C63",
"8+	c #C8A369",
"9+	c #C6A267",
"0+	c #C19960",
"a+	c #C1AC79",
"b+	c #CAA76A",
"c+	c #C9A86B",
"d+	c #C7A56B",
"e+	c #C8A46A",
"f+	c #B99D69",
"g+	c #C29E64",
"h+	c #BBA368",
"i+	c #AB9560",
"j+	c #D4B776",
"k+	c #B69A64",
"l+	c #D1BB7E",
"m+	c #CBA869",
"n+	c #C8A86D",
"o+	c #CFBD8D",
"p+	c #D0C094",
"q+	c #BFA870",
"r+	c #D1B474",
"s+	c #CEAD6E",
"t+	c #C49F65",
"u+	c #C4A36A",
"v+	c #B39762",
"w+	c #BB9E64",
"x+	c #C5A166",
"y+	c #CFAC71",
"z+	c #004D6B",
"A+	c #00828C",
"B+	c #C5B079",
"C+	c #C7B47D",
"D+	c #C2AB75",
"E+	c #CCA568",
"F+	c #CEBA8A",
"G+	c #D0C195",
"H+	c #C5AD79",
"I+	c #C1A46C",
"J+	c #C7A569",
"K+	c #C3A065",
"L+	c #C19F66",
"M+	c #BA9D64",
"N+	c #C1A96D",
"O+	c #B9A46E",
"P+	c #D0B778",
"Q+	c #C0AA70",
"R+	c #AD9B66",
"S+	c #39BEFF",
"T+	c #B25000",
"U+	c #D3B374",
"V+	c #AC8F5A",
"W+	c #C49D60",
"X+	c #C8B179",
"Y+	c #CEB579",
"Z+	c #CEBA89",
"`+	c #D0BE90",
" @	c #C6AF7B",
".@	c #BEA26B",
"+@	c #C7AC72",
"@@	c #C6A266",
"#@	c #C8A56A",
"$@	c #C6AA70",
"%@	c #B6A46B",
"&@	c #DDC683",
"*@	c #D0A568",
"=@	c #CFA266",
"-@	c #CDAA6D",
";@	c #C6A569",
">@	c #AC9666",
",@	c #B09760",
"'@	c #B0935E",
")@	c #BEA066",
"!@	c #CFBA89",
"~@	c #C9B481",
"{@	c #C3A973",
"]@	c #BAA067",
"^@	c #BB9B63",
"/@	c #B49A62",
"(@	c #B2955E",
"_@	c #D8BD7C",
":@	c #CEA466",
"<@	c #CDA162",
"[@	c #CFA464",
"}@	c #D3A866",
"|@	c #000000",
"1@	c #1CA0C5",
"2@	c #D1B06F",
"3@	c #D1AF6E",
"4@	c #C5A46B",
"5@	c #BFA268",
"6@	c #CBAF70",
"7@	c #BD9F65",
"8@	c #CEBB8C",
"9@	c #BDA46E",
"0@	c #CAAF74",
"a@	c #C8B175",
"b@	c #C29E62",
"c@	c #C19C61",
"d@	c #C09E62",
"e@	c #D3B171",
"f@	c #CEA364",
"g@	c #D4AA68",
"h@	c #BF9B62",
"i@	c #D1B777",
"j@	c #D4B474",
"k@	c #D3B676",
"l@	c #C8A86E",
"m@	c #C7AE73",
"n@	c #C6A365",
"o@	c #CBB274",
"p@	c #D1BB8C",
"q@	c #D0BD91",
"r@	c #C2AA77",
"s@	c #BFA26C",
"t@	c #BDA168",
"u@	c #B69D65",
"v@	c #CDA468",
"w@	c #D7A967",
"x@	c #CDB678",
"y@	c #B2935C",
"z@	c #C0A76B",
"A@	c #C4AB71",
"B@	c #AB9562",
"C@	c #AC9762",
"D@	c #A08657",
"E@	c #CEB171",
"F@	c #CEAA6B",
"G@	c #C9AF72",
"H@	c #CCB174",
"I@	c #BE9D63",
"J@	c #BEA76E",
"K@	c #A78F5F",
"L@	c #D0AD6E",
"M@	c #CCAC6F",
"N@	c #CBB073",
"O@	c #CDB274",
"P@	c #CAB174",
"Q@	c #CFBA8B",
"R@	c #D0BF92",
"S@	c #C5AD7A",
"T@	c #BDA46C",
"U@	c #BCA369",
"V@	c #BB9E65",
"W@	c #C4A56E",
"X@	c #D1A96A",
"Y@	c #CFB477",
"Z@	c #C6A264",
"`@	c #C7B076",
" #	c #CDB679",
".#	c #D1BB7D",
"+#	c #CFB476",
"@#	c #AA945F",
"##	c #D0B274",
"$#	c #CDAF71",
"%#	c #C8AB6F",
"&#	c #BB995E",
"*#	c #CFB778",
"=#	c #CFB878",
"-#	c #D3B272",
";#	c #CCAB6F",
">#	c #C7AB6F",
",#	c #BAA168",
"'#	c #C3AA78",
")#	c #C6AE70",
"!#	c #BBA56C",
"~#	c #B8975F",
"{#	c #CAA164",
"]#	c #C9A166",
"^#	c #B69961",
"/#	c #CEA362",
"(#	c #CFA362",
"_#	c #C7A166",
":#	c #C2A168",
"<#	c #D3B777",
"[#	c #CDB778",
"}#	c #D5B876",
"|#	c #D4B978",
"1#	c #CAAF71",
"2#	c #D7AF6D",
"3#	c #AD8F5A",
"4#	c #CCB276",
"5#	c #C9AF71",
"6#	c #BAA069",
"7#	c #C6AF74",
"8#	c #CEB989",
"9#	c #C7AD7B",
"0#	c #CAAD71",
"a#	c #C9AC71",
"b#	c #CFBA7D",
"c#	c #AB925E",
"d#	c #B8965F",
"e#	c #C8A569",
"f#	c #CFA462",
"g#	c #CCA062",
"h#	c #BDA06B",
"i#	c #C1A067",
"j#	c #CEB174",
"k#	c #A7915C",
"l#	c #BA9960",
"m#	c #D3BC7B",
"n#	c #D5BE7C",
"o#	c #C6A76C",
"p#	c #C7B17B",
"q#	c #C9A96E",
"r#	c #C4AA71",
"s#	c #C8AA70",
"t#	c #D6C183",
"u#	c #B09662",
"v#	c #C1A56D",
"w#	c #C2A36A",
"x#	c #C8A164",
"y#	c #C6A168",
"z#	c #9CDEFF",
"A#	c #C8B77E",
"B#	c #C4A76D",
"C#	c #C1A76E",
"D#	c #C4A56A",
"E#	c #CEBB8D",
"F#	c #CEBE92",
"G#	c #C7AF7B",
"H#	c #C9AA6E",
"I#	c #C7A96E",
"J#	c #C4B076",
"K#	c #B4955F",
"L#	c #AB8D5A",
"M#	c #B09560",
"N#	c #00677B",
"O#	c #D0B879",
"P#	c #C8AE73",
"Q#	c #CBB477",
"R#	c #CFBC8E",
"S#	c #D0BE8E",
"T#	c #CDB88A",
"U#	c #C9A96C",
"V#	c #B79E68",
"W#	c #CAB678",
"X#	c #C1AA72",
"Y#	c #BBA36E",
"Z#	c #C4AF71",
"`#	c #C4A367",
" $	c #C2A770",
".$	c #B79760",
"+$	c #BCA56C",
"@$	c #D4C49A",
"#$	c #CFBF92",
"$$	c #D1BE8E",
"%$	c #CDB787",
"&$	c #C8AB70",
"*$	c #CBA669",
"=$	c #CFAF71",
"-$	c #D5B677",
";$	c #BB9E68",
">$	c #BD9D64",
",$	c #D8C17F",
"'$	c #C9A469",
")$	c #CDA86A",
"!$	c #C19D62",
"~$	c #BDA369",
"{$	c #D4C399",
"]$	c #D1C296",
"^$	c #C7AF7A",
"/$	c #A28E5B",
"($	c #AD925D",
"_$	c #B1905C",
":$	c #A58B5B",
"<$	c #C6A066",
"[$	c #C2A46B",
"}$	c #C1A168",
"|$	c #C1A36A",
"1$	c #C49A5F",
"2$	c #C9B071",
"3$	c #C8AC70",
"4$	c #D0B97B",
"5$	c #D3BF91",
"6$	c #CCB882",
"7$	c #C6AD75",
"8$	c #C9B074",
"9$	c #C9B075",
"0$	c #BAA36A",
"a$	c #A48E5F",
"b$	c #BE9D64",
"c$	c #C1A167",
"d$	c #C1A46B",
"e$	c #C4A46D",
"f$	c #C2A971",
"g$	c #BBAC79",
"h$	c #A59362",
"i$	c #BEA067",
"j$	c #C5AB6F",
"k$	c #D0BE92",
"l$	c #D1C094",
"m$	c #C9B581",
"n$	c #BEA774",
"o$	c #CDB174",
"p$	c #CAAF72",
"q$	c #B19D68",
"r$	c #B7A16B",
"s$	c #C6A367",
"t$	c #CDA362",
"u$	c #CEB87C",
"v$	c #C4A063",
"w$	c #B9955E",
"x$	c #CBA367",
"y$	c #C7A568",
"z$	c #D1BF93",
"A$	c #D2C194",
"B$	c #C4AD79",
"C$	c #B89F6C",
"D$	c #CAAD70",
"E$	c #C9AA6C",
"F$	c #CAA96D",
"G$	c #B49D67",
"H$	c #D8BE7D",
"I$	c #D7BF7D",
"J$	c #C4A167",
"K$	c #CCB478",
"L$	c #CDB879",
"M$	c #CBA366",
"N$	c #D8C49B",
"O$	c #D3C296",
"P$	c #C7B27C",
"Q$	c #CBB479",
"R$	c #BFA36A",
"S$	c #D6C17E",
"T$	c #9D8655",
"U$	c #AF9260",
"V$	c #BA9B63",
"W$	c #D0AE70",
"X$	c #CDBB8E",
"Y$	c #C5AF79",
"Z$	c #BFA76D",
"`$	c #CDA568",
" %	c #CCA264",
".%	c #CCAC70",
"+%	c #B19962",
"@%	c #C1A469",
"#%	c #D4BE7C",
"$%	c #A08C5B",
"%%	c #B09B64",
"&%	c #CBB88B",
"*%	c #CFBB8A",
"=%	c #C6AF78",
"-%	c #D0B877",
";%	c #CAAA6B",
">%	c #A48D5B",
",%	c #D0B97A",
"'%	c #CEB988",
")%	c #BD9A61",
"!%	c #C6A268",
"~%	c #CAA568",
"{%	c #D6C498",
"]%	c #D4C397",
"^%	c #D3B877",
"/%	c #CEA266",
"(%	c #AD9766",
"_%	c #D0BB8A",
":%	c #CFA869",
"<%	c #B49660",
"[%	c #C09C61",
"}%	c #D0AF6E",
"|%	c #C89E62",
"1%	c #CAA264",
"2%	c #D5B774",
"3%	c #CCAA6B",
"4%	c #AC945F",
"5%	c #D1BB8A",
"6%	c #C6B280",
"7%	c #C9A062",
"8%	c #C8AF74",
"9%	c #C8B174",
"0%	c #D4BD8F",
"a%	c #CFBB8D",
"b%	c #CCB685",
"c%	c #C3AB74",
"d%	c #9D8759",
"e%	c #D3B97A",
"f%	c #CAA96B",
"g%	c #CFA96A",
"h%	c #D1B172",
"i%	c #BFA76E",
"j%	c #D0B071",
"k%	c #C8AC71",
"l%	c #C6A265",
"m%	c #C2AB70",
"n%	c #D2BB8B",
"o%	c #D0BD8F",
"p%	c #CAB788",
"q%	c #C4AC75",
"r%	c #CDB071",
"s%	c #BBA068",
"t%	c #B8A067",
"u%	c #CEB878",
"v%	c #CDAC6F",
"w%	c #CAB073",
"x%	c #B5A26A",
"y%	c #AC935E",
"z%	c #BA9C64",
"A%	c #D2A767",
"B%	c #D5A868",
"C%	c #D6A867",
"D%	c #B1925E",
"E%	c #D5B674",
"F%	c #CFA566",
"G%	c #C9A164",
"H%	c #D7C17E",
"I%	c #B79E64",
"J%	c #D4BA79",
"K%	c #CEB072",
"L%	c #B6945B",
"M%	c #AF8F5B",
"N%	c #B0925B",
"O%	c #AB915C",
"P%	c #A38A58",
"Q%	c #CEA767",
"R%	c #CEAB6D",
"S%	c #C9AF74",
"T%	c #BBA56F",
"U%	c #D3C397",
"V%	c #CCB886",
"W%	c #CEB97C",
"X%	c #CFBA79",
"Y%	c #D6BF7D",
"Z%	c #C59E63",
"`%	c #BB955E",
" &	c #D3BA78",
".&	c #CCAD71",
"+&	c #C4A168",
"@&	c #C7A96D",
"#&	c #C4AA70",
"$&	c #C9B27E",
"%&	c #D0BC8B",
"&&	c #D2C395",
"*&	c #D0BF90",
"=&	c #C5A971",
"-&	c #C5A76D",
";&	c #D3BD7F",
">&	c #AA8F5C",
",&	c #D3AB6B",
"'&	c #C19D64",
")&	c #C09B62",
"!&	c #C2AB72",
"~&	c #B8A06A",
"{&	c #BC9E67",
"]&	c #BDA16A",
"^&	c #CDAD6F",
"/&	c #C9AB6E",
"(&	c #D0B676",
"_&	c #CAAA6F",
":&	c #C6A76D",
"<&	c #C0A36A",
"[&	c #BBA570",
"}&	c #BB9D67",
"|&	c #C8B076",
"1&	c #C4AA6F",
"2&	c #C7AB71",
"3&	c #CBB581",
"4&	c #D0C092",
"5&	c #D3C396",
"6&	c #D0BA88",
"7&	c #CCB17C",
"8&	c #C4AF75",
"9&	c #B59760",
"0&	c #AC8F5B",
"a&	c #B19661",
"b&	c #CDB577",
"c&	c #CDB175",
"d&	c #BBA46A",
"e&	c #D2BB7C",
"f&	c #C6A067",
"g&	c #BFA368",
"h&	c #AD9560",
"i&	c #CCB577",
"j&	c #BEA66D",
"k&	c #C69F67",
"l&	c #C5AF73",
"m&	c #BEA86E",
"n&	c #C7B17C",
"o&	c #CDBB8D",
"p&	c #CFBD90",
"q&	c #D1C193",
"r&	c #CEB786",
"s&	c #C7AA6F",
"t&	c #BA9B62",
"u&	c #CDB87A",
"v&	c #B59862",
"w&	c #C7AE74",
"x&	c #C1A269",
"y&	c #AD9660",
"z&	c #B59A62",
"A&	c #C3A76A",
"B&	c #C7A86B",
"C&	c #C9AA6F",
"D&	c #B69963",
"E&	c #B49862",
"F&	c #C2A469",
"G&	c #C5AA6F",
"H&	c #C5AC74",
"I&	c #CAB27E",
"J&	c #CDBC8F",
"K&	c #CDBA89",
"L&	c #CCB380",
"M&	c #CAB17C",
"N&	c #C7AA70",
"O&	c #C1A56E",
"P&	c #C4A86B",
"Q&	c #C1A369",
"R&	c #B69C65",
"S&	c #B69C66",
"T&	c #C4AB74",
"U&	c #C4AC7B",
"V&	c #CAB685",
"W&	c #C3AF7F",
"X&	c #BDA972",
"Y&	c #BDA570",
"Z&	c #BDA56B",
"`&	c #C3A96D",
" *	c #C0A973",
".*	c #C4AA73",
"+*	c #C4A96D",
"@*	c #C4A96E",
"#*	c #BEA76F",
"$*	c #BAA66E",
"%*	c #C6AC71",
"&*	c #C4A86E",
"**	c #C5A96D",
"=*	c #C1A76F",
"-*	c #C4AE7B",
";*	c #C9B380",
">*	c #C6B37E",
",*	c #CAB37D",
"'*	c #CDB786",
")*	c #D2BD8F",
"!*	c #D1C398",
"~*	c #CDBA8A",
"{*	c #CDB888",
"]*	c #CDB784",
"^*	c #CCB37F",
"/*	c #C0A76F",
"(*	c #C0AA74",
"_*	c #CAB17A",
":*	c #CBAF7A",
"<*	c #C6AC75",
"[*	c #BDA46D",
"}*	c #B8A470",
"|*	c #BBA978",
"1*	c #C9B685",
"2*	c #CDBA8B",
"3*	c #CBB88A",
"4*	c #C9B684",
"5*	c #C9B482",
"6*	c #CBB986",
"7*	c #CEB987",
"8*	c #C7B27E",
"9*	c #C1B07D",
"0*	c #C1B07B",
"a*	c #C5AB72",
"b*	c #C0AE75",
"c*	c #C2AF77",
"d*	c #C6AE77",
"e*	c #C2B07C",
"f*	c #CFBC8C",
"g*	c #D0BC8F",
"h*	c #D1BE8F",
"i*	c #CFBD91",
"j*	c #CEBC8C",
"k*	c #D0C196",
"l*	c #CFC198",
"  . + @ # $ % & * = - ; > , ' ) ! ~ { ] ^ / ( _ : < [ } | 1 ! ! 2 3 4 5 6 7 8 9 = 0 a ",
"8 b c d e f g h / i j k l m n ! o p q r s t u v w x y z A B ! C ! D E F G H I J a = K ",
"L . M N O P Q R S T U V W X C C ! Y Z `  ...+.@.#.$.%.&.Q *.=.! C C -.;.>.,.'.).!.~.{.",
"].^./.(._.:.<.[.}.|.1.2.! o 3.C 4.5.6.7.8.9.0.a.b.c.d.e.f.g.h.i.3.3.C j.k.l.m.n.!.o.p.",
"q.r.s.t.u.v.w.x.y.y.z.A.! C 3.C B.C.D.E.F.G.H.I.J.K.L.M.x.N.O.P.C 3.C Q.R.S.T.U.V.W.X.",
"Y.Z.d.`. +.+++@+#+$+%+&+C 3.3.! *+=+-+;+>+z.,+'+)+!+~+{+]+^+#+/+C 3.C ! (+_+:+<+[+}+|+",
"1+2+3+4+5+6+7+8+#+9+0+! 3.3.3.! a+b+c+d+e+f+g+h+i+j+5+k+7+'+#+y.C 3.C o ! l+a+m+n+o+p+",
"m q+r+s+t+u+v+w+O.x+y+! 3.3.C C ! ! o z+z+A+A+A+A+z+! o ! ! ! C 3.3.C o ! B+C+D+E+F+G+",
"H+I+J+K+L+M+N+O+P+Q+R+! o C C C o 3.z+3.3.S+S+A+A+z+3.T+3.3.3.3.3.C o ! U+V+W+X+Y+Z+`+",
" @.@+@@@#@$@%@&@*@=@-@! o o o o T+z+A+3.3.S+A+A+A+z+3.T+3.3.3.3.o o o ! ;@>@,@'@)@!@p.",
"~@{@]@^@/@(@_@:@<@<@[@}@! ! o o ! z+S+|@|@|@|@|@|@1@T+o T+o o o o |@|@2@3@4@5@6@7@8@7 ",
" @9@0@a@b@c@d@e@<@<@f@g@h@i@! ! |@z+3.|@|@|@|@|@|@S+A+T+T+|@|@|@|@j@h@k@3@l@m@n@o@p@q@",
"r@s@t@u@v@w@x@y@z@A@B@C@D@E@F@G@H@z+3.3.S+|@S+S+A+S+S+|@|@I@z@J@B@K@D@L@F@M@N@O@P@Q@R@",
"S@T@U@V@W@X@Y@Z@`@ #.#+#@#F.##$#%#z+3.3.S+|@S+A+A+S+S+1@|@&#`@*#.#=#@#-###;#>#N@,#I a ",
"/ '#)#!#~#{#]#^#/#(#_#:#<#[#}#|#1#z+3.3.S+|@S+A+A+S+S+1@|@2#z+z+z+z+<#3#}#4#5#6#7#6 `+",
"8#9#0#a#b#c#d#e#f#g#h#i#j#z+A+1@A+z+3.z+1@|@S+A+A+S+S+1@|@z+3.3.S+1@A+k#l#m#n#>#o#8#= ",
"F+p#n+q#r#s#t#u#v#w#x#y#z+A+3.S+A+z+z+z#3.z+S+A+A+S+S+1@|@A+3.3.S+S+A+z+A#B#3#C#D#E#F#",
"o.G#:.H#I#%#J#K#L#M#<+! A+S+S+S+A+S+3.A+N#A+A+N#|@|@|@|@|@N#S+S+S+1@A+1@z+O#P#Q#;@R#0 ",
"S#T#U#%.c+q#V#W#X#Y#Z#|@A+1@1@A+z+3.3.N#N#A+A+A+A+A+N#A+|@N#A+A+A+A+A+z+o `# $.$+$@$#$",
"$$%$&$*$=$i@-$##;$>$,$|@T+A+A+z+z#3.3.z+z+z+N#N#A+A+N#A+|@o A+A+A+A+A+T+o '$)$!$~${$]$",
"!@^$/$($_$:$<$[$}$|$1$2$|@o |@|@z#z#z#z+z+z+N#N#N#A+N#A+|@|@o z+z+z+T+|@|@|@|@3$4$5$a ",
"6$7$8$9$0$a$b$c$d$e$f$g$h$|@o T+S+z#z#z+z+N#N#N#A+A+A+A+|@|@T+o T+T+|@z+|@A+A+i$j$k$l$",
"m$n$o$U#e#p$q$r$s$t$D#u$v$w$z+z+A+z#z#z+z+N#A+A+A+A+1@|@z+|@|@|@D#|@z+|@A+|@|@x$y$z$A$",
"B$C$D$E$F$|@|@|@|@|@|@G$H$I$|@z+|@z#z#1@z+N#A+A+A+A+z+z+z+z+|@J$K$L$H$S+S+S+A+x#M$N$O$",
"P$Q$R$|@|@S+z#z#z#z#S+S${#|@|@|@|@A+z#S+z+A+A+A+1@|@|@z+z+|@T$U$V$)${#A+S+1@A+$.W$X$] ",
"Y$|@3.3.3.z#z#z#z#z#|@Z$`$ %A+A+z+|@|@z#S+N#1@1@|@|@|@|@.%+%@%*+|@#%`$|@1@A+|@$%%%&%*%",
"=%z#3.z#z#z#z#z#z#z#|@&+-%;%N#N#z+|@-+A+S+N#z+|@z+|@z+>%/@^+#+/+3.|@-%|@1@A+|@,%|@|@'%",
"|@z#3.3.3.3.z#z#S+S+A+|@|@z+z#z#|@|@|@|@A+z+z+z+z+|@|@|@)%#+#+!%3.3.|@S+z#A+|@|@|@T+!@",
"z#S+3.3.z#z#3.3.3.A+A+S+|@A+|@|@|@|@|@|@|@|@|@|@|@|@|@|@|@|@|@|@|@3.S+z#z#z#|@T+~%T+{%",
"3.A+A+A+1@3.3.3.3.z#S+z#|@1@z+A+A+T+T+T+T+T+T+T+T+T+T+T+T+T+T+T+T+|@A+S+A+A+|@T+#@T+]%",
"|@1@S+1@A+|@|@|@|@|@|@|@^%|@|@|@1@|@z+A+S+1@1@|@z+|@|@A+1@N#*@/%o o ^%|@|@(%=.|@|@T+_%",
"|@3.S+S+1@A+|@|@|@A+|@:%<%[%}%|@1@z+z+A+1@1@S+|@z+|@|@A+A+N#|%|%o o <%1%}%2%3%4%T+T+5%",
"6%|@3.3.z#S+S+S+S+S+|@g@h@i@3@|@|@z+z+A+A+A+S+|@z+z+|@|@|@N#<@7%|@j@h@k@3@l@8%Z@9%0%a%",
"b%c%|@S+3.3.3.3.3.3.z#A@d%e%F@|@f%|@z+z+A+A+z+|@|@z+|@|@|@z+-#g%h%i%d%j%F@k%f%l%m%n%o%",
"p%q%U@V@W@|@|@|@|@|@|@+#@#F.##$#|@A+|@|@|@S+r%s%t%|@|@A+A+|@`@*#.#u%@#-###v%%#w%x%( '%",
"  2+y%z%A%B%C%D%E%F%[@G%H%I%J%K%&$|@|@|@L%M%N%O%P%|@N#|@|@z+E%Q%[@R%H%<#J%S%&$w%T%!@Z+",
"U%V%k%k%W%y%d#e#f#g#h#i#j#X%l#G.Y%A+N#z+|@Z%`% &.&Y@|@A+A+z+|@+&h#@&j#k#l#m#n##&$&%&= ",
"&&*&=&-&k%;&O%>&,&k.'&)&!&~&{&]&|@A+N#z+|@^&/&(&_&:&|@N#z+|@z+|@'&<&!&[&}&|&1&2&3&p.#$",
"4&5&6&7&>#3$8&9&0&a&b&c&d&e&f&|@z+N#N#z+|@g&h&H#:.f.|@z+S+S+|@|@i&j&d&v#k&l&m&n&Q@o&0 ",
"p&q&'%r&k%s&t&=.u&i&v&w&x@x&S+S+S+|@z+|@y&]+z&A&P B&C&A+S+S+S+A+D&E&9%F&G&H&I&n 2 J J&",
"K&8 { 6&L&M&N&R O&v#P&Q&R&S&T&U&V&W&X&Y&Z&`&J. *.*+*@*#*$*%*&***=*-*;*>*,*'*)*8@  !*]$",
"- ~*V%{*]*^*/*(*_*:*<*[*}*|*1*2*E#3*4*5*6*7*8*9*0*H&a*b*c*,*d*e*F f*g*5$h*2*i*c j*k*l*"};
