/* XPM */
static char * player_xpm[] = {
"46 42 13 1",
" 	c None",
".	c #683500",
"+	c #FF9A39",
"@	c #FFE1B2",
"#	c #FFFFFF",
"$	c #004D6B",
"%	c #00828C",
"&	c #39BEFF",
"*	c #B25000",
"=	c #000000",
"-	c #1CA0C5",
";	c #9CDEFF",
">	c #00677B",
"                 .             ..             ",
"                .+             .@.            ",
"               @@.              .@@           ",
"             .+#@                ##@          ",
"             .@#@                @#@          ",
"             @##.                @#@.         ",
"            .###.                @#@+.        ",
"            .##@@..+$$%%%%$.+...@##@+.        ",
"            .+@@@+#$##&&%%$#*#####@+.         ",
"            .++++*$%##&%%%$#*####+++.         ",
"             ..++.$&======-*+*++++==          ",
"               ..=$#======&%**====            ",
"                  $##&=&&%&&==                ",
"                  $##&=&%%&&-=                ",
"                  $##&=&%%&&-= $$$$           ",
"              $%-%$#$-=&%%&&-=$##&-%          ",
"             $%#&%$$;#$&%%&&-=%##&&%$         ",
"            .%&&&%&#%>%%>=====>&&&-%-$        ",
"            =%--%$##>>%%%%%>%=>%%%%%$+        ",
"            =*%%$;##$$$>>%%>%=+%%%%%*+        ",
"             =+==;;;$$$>>>%>%==+$$$*====      ",
"              =+*&;;$$>>>%%%%==*+**=$=%%      ",
"               $$%;;$$>%%%%-=$=== =$=%==      ",
"      ======   =$=;;-$>%%%%$$$$=    &&&%      ",
"    ==&;;;;&  ====%;&$%%%-==$$=     %&-%      ",
"  =###;;;;;=   %%$==;&>--====    =  =-%=      ",
"  ;#;;;;;;;=   >>$= %&>$=$=$     #= =-%= ==   ",
" =;####;;&&%==$;;====%$$$$===    ##=&;%===*   ",
"=;&##;;###%%&=%===================#&;;;=* *   ",
"=#%%%-####;&;=-$%%****************=%&%%=* *   ",
" =-&-%======= ===-=$%&--=$==%->  ++ ==  ==*   ",
" =#&&-%===%=    =-$$%--&=$==%%>  ++      **   ",
"  =##;&&&&&=    ==$$%%%&=$$===>  =            ",
"   =&######;    = =$$%%$==$===$               ",
"      ======     =%===&   ==%%=               ",
"                  ===     =>==$               ",
"                  %>$=     =%%$=              ",
"                 =%>$=     =>$=$=             ",
"                =$>>$=     =$&&==             ",
"               &&&=$=       %&&&%             ",
"                                              ",
"                                              "};
