/* XPM */
static char * block_xpm[] = {
"42 42 5 1",
" 	c #99D9EA",
".	c #000000",
"+	c #F87018",
"@	c #E03000",
"#	c #500000",
"   .......    ...          ............   ",
" .+++++++++..+++++++++++++..++++++++.+++. ",
" +++++++++++.++++++++++++++.++++++++.++++ ",
".++++++++++++++++++++++++++@++++++@.+++++ ",
".+++++++++++..+++++++++++++@@++++@@@++++..",
".+++++++++++..+++++++++++++@@@@@@..@@+++..",
" ++++++++++++.++++++++++++@@@@@.....@++@..",
" @++++++++++@.++++++++++++@@@@.++++..@.@@.",
" @@+++++++++@@+++++++++++@@@@.++++++...@@.",
" .@@++++++@@@@.@++++++++@@@#+++++++++..@@.",
" ..##@@@@@@@@#.@@+++++@@@@#.+++++++++@.@@.",
" ++..@@@@@@@#...@@@@@@@@@@#.+++++++++@.@@ ",
" +++...###...+++.....@@@###.@+++++++@.@@@ ",
" ++++.......+++++++++.####..@@+++++@@.@@@ ",
" ++++++.....++++++++++.++++.@@@@@@@@@#+@@ ",
" ++++++++..+++++++++++.++++..@@@@@@@.+++@ ",
" .++++++++++++++++++++.+++++...######+++@ ",
"  .+++++++++++++++++++.@+++++.++++++++++@ ",
"  .+++++++++++++++++++..@+++@@++++++++++@ ",
"  .++++++++++++++++++@..@@@@@@+++++++++@@ ",
" .@++++++@@++++++++@@@..++..@@@++++++++@@.",
" .@@+++@@@@@++++++@@@@++++++.@@@++++++@@@.",
" .@##@@@@...@@@@@@@@.++++++++@#@@@@@@@@##.",
" .@..###.+..@@@@@@##.+++++++++.#@@@@@@@#@.",
" @@+++++++++.#@###...+++++++++.........@@.",
".@@@++++++++..#......+++++++++.++++++++@@.",
".@@@@@@@@@@..++++++...++++++++.++++++++@@.",
".###..####..++++++++..++++++++.++++++++@@.",
".@++++++..+++++++++++@@@++++@@++++++++@@@.",
".++++++++.+++++++++++@.@@@@@@@@++++++@..@.",
".++++++++++++++++++++@.......@@++@@@@@@@@ ",
" @+++++++++++++++++++@.+++++..++++++++++@.",
" @@+++++.@++++++++++@@.+++++..+++++++++++.",
" @@@@@@@.@@+++++++@@@@.+++++++++++++++++@.",
" @@@@@@@.@@@++++@@@@@#@+++++++@@@@@@@@+@@.",
" @@++++..@@@@@@@@@@#..@@@@++@@@@......@@@.",
" @+++++++#@@@@@@@@#.....@@@@@@@.++++++.@@.",
".+++++++++##@@@@####@@@@@@@@@@@.++++++@...",
".@@@++++++..####..@@@@@@@@@@@@@.@++++@@.. ",
".@@@@@@@@@@@@@@@@@@@@@@@@@###@@#@@@@@@@#. ",
" ##@@@@@@@@@@@@@@@@@@@####...###@@@@@@#.  ",
" .....................         ........   "};
